<?xml version="1.0" encoding="UTF-8"?>
<svg width="130px" height="156px" viewBox="0 0 130 156" version="1.1" xmlns="http://www.w3.org/2000/svg" xmlns:xlink="http://www.w3.org/1999/xlink">
    <!-- Generator: Sketch 48.2 (47327) - http://www.bohemiancoding.com/sketch -->
    <title>Group</title>
    <desc>Created with Sketch.</desc>
    <defs></defs>
    <g id="Page-1" stroke="none" stroke-width="1" fill="none" fill-rule="evenodd">
        <g id="Group" fill-rule="nonzero">
            <path d="M128.127503,119.205 C126.074503,119.255 107.961503,119.705 104.232503,120.615 C101.587503,121.265 96.7755028,120.115 95.1425028,119.618 C94.3105028,119.358 93.4205028,119.821 93.1625028,120.646 C92.9025028,121.469 93.3685028,122.344 94.2045028,122.6 C94.4215028,122.665 98.5875028,123.926 102.320503,123.926 C103.264503,123.926 104.178503,123.846 104.996503,123.644 C107.864503,122.944 122.720503,122.456 128.204503,122.328 C129.077503,122.306 129.771503,121.591 129.749503,120.728 C129.729503,119.865 128.994503,119.192 128.126503,119.204" id="Shape" fill="#2E2C2D"></path>
            <path d="M125.312503,67.345 L67.1225028,69.91 M76.8885028,69.043 L84.9825028,51.911 M84.9825028,69.121 L98.5625028,52.297 M98.5625028,68.523 L107.964503,55.101 M109.465503,68.044 L114.768503,58.559 M109.465503,68.044 L115.953503,76.637 M98.5625028,68.523 L107.082503,82.227 M84.9825028,69.121 L91.1685028,80.015 M76.8885028,69.043 L80.8535028,81.443 M11.2975028,69.911 L62.3915028,69.911 M51.0385028,69.911 L44.8585028,53.631 M40.3935028,69.911 L36.8435028,53.418 M30.2215028,69.911 L22.0355028,59.457 M30.2215028,69.911 L22.0355028,81.654 M40.3935028,69.911 L31.3635028,83.526 M51.0385028,69.911 L44.0845028,81.654 M79.4235028,53.224 L80.4875028,53.469" id="Shape" fill="#FE504F"></path>
            <path d="M116.230503,74.387 L112.520503,69.473 L121.818503,69.063 C120.505503,70.507 118.626503,72.4 116.230503,74.387 Z M101.318503,69.967 L108.695503,69.642 L113.745503,76.33 C111.933503,77.662 109.895503,78.975 107.659503,80.166 L101.319503,69.966 L101.318503,69.967 Z M68.7085028,64.719 L68.7085028,63.079 C70.3635028,61.631 75.9325028,57.003 81.9935028,54.539 L75.6485028,67.971 L68.7085028,68.277 L68.7085028,64.719 Z M64.7585028,60.826 C64.2685028,60.826 63.8015028,60.926 63.3685028,61.086 C62.1355028,59.603 57.0335028,54.246 46.7915028,52.372 C41.6215028,44.21 39.9095028,36.786 41.7135028,30.307 C43.1935028,24.994 46.7865028,21.415 49.3235028,19.452 C48.8495028,24.327 49.2495028,28.777 50.4535028,32.806 C50.4675028,32.902 50.5035028,32.99 50.5365028,33.081 C51.5005028,36.194 52.9385028,39.061 54.9065028,41.634 C61.1295028,49.762 70.6635028,52.954 75.7625028,54.136 C70.7985028,57.012 66.9995028,60.373 66.1975028,61.104 C65.7515028,60.93 65.2675028,60.826 64.7595028,60.826 L64.7585028,60.826 Z M57.9325028,83.564 C59.0825028,82.744 60.0325028,81.898 60.8065028,81.084 L60.8065028,85.574 C60.2385028,85.084 59.2885028,84.348 57.9335028,83.564 L57.9325028,83.564 Z M13.9405028,71.471 L27.2105028,71.471 L21.6225028,79.489 C17.6545028,76.712 15.2255028,73.527 13.9405028,71.472 L13.9405028,71.471 Z M21.7355028,61.631 L26.9975028,68.349 L14.5925028,68.349 C16.1675028,66.549 18.6175028,64.019 21.7355028,61.629 L21.7355028,61.631 Z M60.8055028,64.719 L60.8055028,68.349 L52.1375028,68.349 L47.3175028,55.653 C55.5395028,57.441 59.7045028,61.647 60.8075028,62.933 L60.8075028,64.719 L60.8055028,64.719 Z M43.7115028,55.069 L48.7535028,68.349 L41.6755028,68.349 L38.7715028,54.849 C38.9915028,54.842 39.2115028,54.831 39.4315028,54.831 C40.9515028,54.831 42.3695028,54.921 43.7115028,55.068 L43.7115028,55.069 Z M35.5995028,55.161 L38.4365028,68.349 L31.0025028,68.349 L24.3125028,59.804 C27.5825028,57.669 31.4025028,55.871 35.6005028,55.161 L35.5995028,55.161 Z M28.6745028,83.156 L28.2475028,82.963 C26.8145028,82.431 25.5125028,81.815 24.3075028,81.153 L31.0555028,71.473 L37.4655028,71.473 L30.0355028,82.673 C30.0185028,82.698 30.0185028,82.728 30.0025028,82.756 C29.5645028,82.886 29.1225028,83.02 28.6745028,83.156 Z M34.6325028,81.45 L41.2495028,71.47 L48.2765028,71.47 L43.1545028,80.123 C40.2685028,80.216 37.4915028,80.719 34.6325028,81.449 L34.6325028,81.45 Z M54.6155028,81.978 C52.5055028,81.156 49.8855028,80.476 46.7705028,80.215 L51.9485028,71.471 L60.8065028,71.471 L60.8065028,75.723 C60.4135028,76.563 58.7765028,79.571 54.6265028,81.971 C54.6225028,81.974 54.6215028,81.978 54.6165028,81.979 L54.6155028,81.978 Z M27.3155028,40.248 C27.3155028,34.694 30.0495028,30.35 35.4455028,27.338 C37.1615028,26.378 38.8905028,25.708 40.3455028,25.248 C39.6825028,26.522 39.0975028,27.908 38.6695028,29.435 C36.7695028,36.198 38.1655028,43.727 42.7965028,51.845 C41.7195028,51.759 40.6045028,51.705 39.4335028,51.705 C36.7935028,51.705 34.2755028,52.11 31.9005028,52.793 C28.8705028,48.963 27.3155028,44.75 27.3155028,40.249 L27.3155028,40.248 Z M39.6125028,11.865 C42.1945028,8.737 45.5905028,7.181 48.7025028,7.712 C50.1925028,7.965 51.4645028,8.676 52.4525028,9.762 C52.4655028,9.78 52.4825028,9.794 52.4975028,9.81 C52.8755028,10.233 53.2155028,10.708 53.5015028,11.242 C52.9215028,11.586 52.2515028,12.026 51.6965028,12.509 C50.7625028,13.329 50.2605028,14.453 50.0105028,15.189 C48.7085028,15.941 45.6165028,17.949 42.8635028,21.382 C41.6335028,21.624 38.8515028,22.282 35.7905028,23.698 C35.6705028,21.022 36.0525028,16.178 39.6135028,11.863 L39.6125028,11.865 Z M69.1325028,3.122 C76.3825028,3.122 80.5725028,7.012 82.4255028,9.324 C78.6395028,9.259 75.7135028,9.846 75.4655028,9.899 C75.4255028,9.906 75.3975028,9.933 75.3595028,9.943 C75.3035028,9.959 75.2475028,9.966 75.1935028,9.988 C75.1605028,10 75.1365028,10.028 75.1035028,10.044 C75.0895028,10.05 75.0765028,10.061 75.0635028,10.069 C74.9685028,10.119 74.8805028,10.169 74.8005028,10.236 C74.7685028,10.261 74.7305028,10.271 74.6985028,10.299 C73.8285028,11.124 72.9765028,11.829 72.1365028,12.464 C70.8095028,9.116 68.3425028,7.219 65.1135028,7.219 C60.7605028,7.219 58.2275028,9.394 56.9035028,11.114 C56.5735028,10.27 56.1695028,9.487 55.6875028,8.784 C57.0895028,7.034 61.1175028,3.121 69.1355028,3.121 L69.1325028,3.122 Z M98.2385028,25.129 C98.1665028,27.286 97.3445028,29.277 95.8635028,31.011 C94.0835028,20.303 86.7165028,15.814 85.1635028,14.981 C84.8555028,14.275 84.4315028,13.624 83.8895028,13.037 C83.7095028,12.844 83.5235028,12.661 83.3295028,12.49 C86.7665028,12.658 90.7465028,13.462 93.6495028,15.912 C96.6755028,18.464 98.3495028,21.824 98.2395028,25.129 L98.2385028,25.129 Z M103.030503,41.059 C103.030503,44.889 100.720503,48.556 97.1385028,50.454 C95.4255028,50.187 93.6385028,50.001 91.7785028,49.908 C94.2145028,47.168 96.2655028,42.795 96.2655028,35.818 C96.2655028,35.538 96.2375028,35.283 96.2305028,35.01 C97.2475028,34.18 98.1365028,33.275 98.8655028,32.296 C100.440503,33.753 103.030503,36.796 103.030503,41.059 Z M115.317503,60.811 C118.165503,62.685 120.347503,64.537 121.810503,65.934 L112.215503,66.358 L115.317503,60.81 L115.317503,60.811 Z M108.499503,57.084 C109.971503,57.742 111.352503,58.437 112.622503,59.158 L108.505503,66.52 L101.678503,66.82 L108.498503,57.083 L108.499503,57.084 Z M99.1915028,54.024 C101.446503,54.51 103.541503,55.144 105.503503,55.864 L97.7055028,66.997 L88.3915028,67.407 L99.1915028,54.025 L99.1915028,54.024 Z M64.2395028,38.164 C67.5245028,38.164 70.2935028,37.317 72.4445028,36.287 C80.3445028,32.504 85.1645028,23.987 85.7025028,19.127 C88.5375028,21.407 93.0945028,26.514 93.0945028,35.819 C93.0945028,42.569 90.9545028,47.459 86.8995028,49.953 C86.8895028,49.959 86.8865028,49.968 86.8775028,49.973 C86.0935028,50.073 85.3075028,50.233 84.5245028,50.427 C84.4845028,50.44 84.4445028,50.445 84.4075028,50.459 C83.0375028,50.805 81.6805028,51.274 80.3545028,51.833 L79.7815028,51.703 C79.7515028,51.695 79.7235028,51.703 79.6965028,51.699 C79.6615028,51.693 79.6335028,51.674 79.6005028,51.669 C79.4575028,51.655 65.2235028,49.945 57.4205028,39.732 C56.5355028,38.57 55.7655028,37.34 55.1085028,36.047 C58.4635028,37.574 61.5285028,38.165 64.2385028,38.165 L64.2395028,38.164 Z M52.3045028,22.946 C54.7515028,24.961 58.6545028,27.538 62.7625028,27.686 C65.4325028,27.772 67.7895028,26.871 69.7945028,24.98 C75.1745028,19.906 76.7505028,15.494 77.2045028,13.14 C78.5015028,13.36 80.3875028,13.883 81.5425028,15.137 C82.3625028,16.029 82.7025028,17.177 82.5745028,18.645 C82.2705028,22.135 78.1605028,30.078 71.0575028,33.479 C65.5835028,36.099 59.6325028,35.449 53.3705028,31.565 C52.6205028,28.905 52.2625028,26.032 52.3035028,22.945 L52.3045028,22.946 Z M59.0385028,13.549 C59.7525028,12.415 61.5435028,10.342 65.1115028,10.342 C67.5715028,10.342 68.7965028,12.25 69.4145028,14.199 C67.2585028,15.322 65.2145028,15.782 63.3025028,15.519 C61.5225028,15.271 60.0925028,14.429 59.0385028,13.549 Z M53.8005028,14.843 C54.1485028,14.54 54.6125028,14.233 55.0525028,13.969 C56.3145028,15.533 58.8995028,18.046 62.8165028,18.604 C63.3445028,18.68 63.8745028,18.718 64.4095028,18.718 C67.1725028,18.718 70.0465028,17.69 72.9965028,15.698 C72.0745028,17.604 70.4565028,20.03 67.6035028,22.724 C66.2215028,24.024 64.6685028,24.624 62.8835028,24.564 C58.4885028,24.41 54.0095028,20.371 52.5695028,18.957 C52.6615028,18.157 52.7695028,17.352 52.9095028,16.53 C52.9645028,16.275 53.2565028,15.32 53.7995028,14.84 L53.8005028,14.843 Z M79.2165028,67.813 L86.0885028,53.268 C87.0705028,53.07 88.0485028,52.951 89.0035028,52.951 C91.3255028,52.951 93.5335028,53.119 95.6375028,53.407 L84.1875028,67.59 L79.2155028,67.81 L79.2165028,67.813 Z M126.804503,67.843 C126.866503,67.663 126.898503,67.478 126.891503,67.291 C126.891503,67.285 126.895503,67.281 126.894503,67.275 C126.894503,67.245 126.876503,67.221 126.874503,67.191 C126.858503,67.037 126.822503,66.887 126.759503,66.741 C126.733503,66.681 126.697503,66.625 126.662503,66.566 C126.628503,66.506 126.606503,66.441 126.562503,66.386 C126.129503,65.836 117.589503,55.239 101.392503,51.293 C104.378503,48.677 106.199503,44.941 106.199503,41.06 C106.199503,35.086 102.346503,31.107 100.467503,29.518 C101.035503,28.158 101.355503,26.718 101.405503,25.232 C101.548503,20.974 99.4735028,16.712 95.7115028,13.538 C92.9955028,11.248 89.6285028,10.14 86.4215028,9.65 C86.4045028,9.615 86.4075028,9.576 86.3885028,9.54 C86.1815028,9.15 81.1935028,0 69.1335028,0 C60.3235028,0 55.5205028,4.147 53.5015028,6.495 C52.2715028,5.555 50.8395028,4.905 49.2415028,4.635 C44.9875028,3.907 40.4675028,5.877 37.1535028,9.895 C32.1695028,15.937 32.4195028,22.741 32.7465028,25.345 C28.2905028,28.155 24.1465028,32.773 24.1465028,40.249 C24.1465028,45.139 25.6945028,49.721 28.7535028,53.892 C17.6505028,58.422 10.3875028,68.467 9.99950281,69.012 C9.94750281,69.086 9.91250281,69.167 9.87450281,69.247 C9.86150281,69.274 9.84450281,69.297 9.83250281,69.324 C9.76250281,69.494 9.73050281,69.671 9.72450281,69.852 C9.72450281,69.872 9.71450281,69.888 9.71450281,69.908 C9.71450281,69.928 9.72450281,69.948 9.72450281,69.968 C9.73450281,70.146 9.75850281,70.322 9.82850281,70.491 L9.83650281,70.511 C9.83650281,70.513 9.83950281,70.517 9.84150281,70.519 C10.0735028,71.083 13.7395028,79.519 24.0215028,84.535 C17.8655028,86.295 10.7945028,87.892 1.58650281,87.892 C0.710502811,87.892 0.00150281085,88.592 0.00150281085,89.454 C0.00150281085,90.317 0.711502811,91.016 1.58650281,91.016 C13.4935028,91.016 21.8745028,88.48 29.2685028,86.241 C34.6325028,84.617 39.2685028,83.214 44.0845028,83.214 C54.0745028,83.214 59.0845028,88.249 59.1625028,88.327 L62.4905028,91.605 C62.8005028,91.91 63.2055028,92.063 63.6105028,92.063 C64.0175028,92.063 64.4225028,91.91 64.7325028,91.605 C65.3525028,90.995 65.3525028,90.005 64.7325028,89.398 L63.9775028,88.655 L63.9775028,64.715 C63.9775028,64.293 64.3275028,63.947 64.7595028,63.947 C65.1895028,63.947 65.5395028,64.292 65.5395028,64.715 L65.5395028,87.493 C65.5395028,88.356 66.2495028,89.055 67.1245028,89.055 C67.9995028,89.055 68.7095028,88.355 68.7095028,87.493 L68.7095028,81.083 C69.7795028,82.207 71.1775028,83.4 72.9895028,84.486 C73.7395028,84.931 74.7125028,84.7 75.1675028,83.962 C75.6215028,83.224 75.3845028,82.265 74.6375028,81.815 C70.7175028,79.467 69.1015028,76.532 68.7095028,75.712 L68.7095028,71.398 L75.8835028,71.081 L79.3435028,81.907 C79.5575028,82.574 80.1835028,82.999 80.8555028,82.999 C81.0125028,82.999 81.1755028,82.976 81.3325028,82.927 C82.1665028,82.669 82.6295028,81.792 82.3675028,80.967 L79.1615028,70.937 L84.0815028,70.72 L89.7875028,80.77 C90.0775028,81.282 90.6175028,81.57 91.1725028,81.57 C91.4345028,81.57 91.6995028,81.507 91.9445028,81.372 C92.7085028,80.952 92.9805028,79.999 92.5545028,79.246 L87.6245028,70.566 L97.7045028,70.121 L104.807503,81.548 C104.407503,81.728 104.009503,81.91 103.597503,82.078 C102.787503,82.41 102.405503,83.323 102.741503,84.12 C102.994503,84.72 103.584503,85.082 104.205503,85.082 C104.407503,85.082 104.613503,85.045 104.811503,84.964 C105.857503,84.534 106.855503,84.07 107.831503,83.589 C107.858503,83.576 107.887503,83.569 107.914503,83.554 C107.920503,83.55 107.924503,83.544 107.930503,83.539 C119.644503,77.737 126.305503,68.662 126.605503,68.246 C126.661503,68.17 126.688503,68.082 126.728503,68 C126.755503,67.946 126.788503,67.9 126.808503,67.84 L126.804503,67.843 Z M27.3815028,128.278 C18.0645028,116.462 1.95450281,119.491 1.27350281,119.624 C0.415502811,119.794 -0.141497189,120.617 0.0315028108,121.464 C0.203502811,122.307 1.04550281,122.854 1.89650281,122.686 C2.04650281,122.66 16.7545028,119.89 24.8785028,130.194 C25.5765028,131.079 26.3765028,131.929 27.2565028,132.718 C27.5615028,132.992 27.9425028,133.128 28.3245028,133.128 C28.7545028,133.128 29.1825028,132.954 29.4965028,132.616 C30.0865028,131.98 30.0385028,130.992 29.3935028,130.411 C28.6455028,129.741 27.9685028,129.021 27.3835028,128.278 L27.3815028,128.278 Z M94.5375028,118.758 L94.1075028,118.341 C93.0775028,117.329 81.8505028,106.267 73.3295028,97.873 C72.7095028,97.263 71.7075028,97.263 71.0895028,97.873 C70.4695028,98.483 70.4695028,99.471 71.0895028,100.08 C79.6095028,108.476 90.8395028,119.54 91.8655028,120.55 L92.3215028,120.99 C93.9515028,122.56 98.2815028,126.734 98.2985028,129.872 C98.3025028,130.648 98.0305028,131.279 97.4425028,131.859 C96.5895028,132.699 95.6455028,133.075 94.6625028,133.089 C92.4725028,133.066 90.4225028,131.221 89.9825028,130.799 C89.0685028,129.859 88.1425028,129.049 87.4285028,128.427 C87.1125028,128.152 86.8565028,127.93 86.6965028,127.774 L79.8465028,121.024 L77.6045028,123.232 L84.4565028,129.982 C84.6485028,130.172 84.9515028,130.439 85.3285028,130.767 C86.8035028,132.053 90.2615028,135.064 90.3325028,137.337 C90.3495028,137.9 90.1345028,138.381 89.6595028,138.85 C88.9275028,139.57 88.1795028,139.912 87.3795028,139.866 C85.7465028,139.792 84.0965028,138.24 83.5995028,137.651 L83.5895028,137.644 C83.1495028,137.072 82.6575028,136.494 82.0555028,135.9 L73.8115028,127.773 L71.5715028,129.983 L79.8135028,138.109 C81.1565028,139.429 81.9705028,140.634 82.2315028,141.689 C82.4945028,142.745 82.1915028,143.627 81.2515028,144.551 C79.6915028,146.091 77.3615028,144.981 76.5745028,144.531 C76.1915028,143.891 75.7375028,143.281 75.1825028,142.735 C73.2675028,140.847 68.3555028,135.398 68.3055028,135.343 C67.7255028,134.696 66.7235028,134.638 66.0705028,135.213 C65.4155028,135.783 65.3565028,136.771 65.9375028,137.417 C66.1415028,137.644 70.9595028,142.991 72.9425028,144.943 C73.7595028,145.748 74.3155028,146.757 74.4675028,147.713 C74.6315028,148.731 74.3375028,149.593 73.5745028,150.348 C73.2565028,150.658 72.8945028,150.771 72.4245028,150.793 C71.3625028,150.785 68.8585028,150.043 64.0515028,145.153 C63.4445028,144.533 62.4415028,144.521 61.8115028,145.12 C61.1815028,145.72 61.1675028,146.71 61.7775028,147.33 C66.1145028,151.74 69.5905028,153.895 72.4015028,153.916 L72.4435028,153.916 C73.7435028,153.916 74.9075028,153.446 75.8135028,152.556 C77.0235028,151.363 77.6565028,149.866 77.6665028,148.262 C78.1965028,148.376 78.7465028,148.449 79.3065028,148.449 C80.7365028,148.449 82.2245028,148.009 83.4925028,146.759 C84.7425028,145.529 85.4075028,144.123 85.4745028,142.631 C86.0225028,142.811 86.5945028,142.954 87.2085028,142.984 C87.3035028,142.989 87.3985028,142.992 87.4925028,142.992 C89.0925028,142.992 90.6105028,142.327 91.8975028,141.058 C92.9875028,139.984 93.5405028,138.662 93.4975028,137.238 C93.4835028,136.848 93.4205028,136.461 93.3275028,136.076 C93.7405028,136.156 94.1675028,136.206 94.6045028,136.212 L94.7025028,136.212 C96.5595028,136.212 98.2345028,135.49 99.6825028,134.064 C100.872503,132.891 101.474503,131.474 101.465503,129.854 C101.440503,125.412 96.6015028,120.747 94.5355028,118.754 L94.5375028,118.758 Z" id="Shape" fill="#FE504F"></path>
            <path d="M62.3955028,142.913 C60.6795028,147.123 55.1235028,152.493 52.4855028,152.493 C52.1525028,152.493 51.9985028,152.395 51.8685028,152.249 C50.6555028,150.876 52.6815028,147.089 56.7945028,143.043 C58.6385028,141.227 60.4585028,140.143 61.6595028,140.143 C62.0675028,140.143 62.3835028,140.268 62.6835028,140.551 C62.9155028,140.771 62.9235028,141.605 62.3935028,142.913 L62.3955028,142.913 Z M42.3985028,147.865 C40.4135028,145.911 44.0555028,140.57 48.5415028,136.145 C49.2165028,135.48 50.1045028,134.605 51.0715028,133.765 C51.1115028,133.728 51.1635028,133.705 51.2015028,133.661 C51.2065028,133.655 51.2115028,133.651 51.2145028,133.644 C52.8075028,132.278 54.5875028,131.047 55.9445028,131.047 C56.4185028,131.047 56.7925028,131.207 57.1595028,131.57 C57.7435028,132.15 58.0145028,132.775 58.0125028,133.54 C58.0025028,136.6 53.7025028,140.795 51.8675028,142.588 L51.4235028,143.02 C51.1985028,143.243 50.9555028,143.49 50.6955028,143.753 C48.9335028,145.533 45.9875028,148.513 43.8395028,148.513 C43.3025028,148.511 42.8435028,148.306 42.3965028,147.863 L42.3985028,147.865 Z M35.1085028,141.897 C33.2635028,140.08 36.7155028,135.047 40.9515028,130.864 C45.1915028,126.694 47.7915028,125.481 49.3835028,126.932 C49.9835028,127.482 51.2135028,128.614 48.8735028,131.525 C48.0035028,132.287 47.1435028,133.105 46.2995028,133.935 C44.3875028,135.822 42.0315028,138.427 40.4395028,141.118 C39.1115028,142.22 36.8295028,143.593 35.1095028,141.898 L35.1085028,141.897 Z M29.2915028,135.433 C28.4845028,134.638 29.3915028,132.813 30.0045028,131.797 C31.1975028,129.821 33.0345028,127.892 34.0205028,126.919 L34.4265028,126.519 C35.7635028,125.191 38.0015028,122.972 39.3565028,122.972 C39.5265028,122.972 39.7385028,123.007 40.0105028,123.262 C40.2905028,123.524 40.4165028,123.832 40.4205028,124.257 C40.4455028,126.18 38.0785028,129.382 35.7225028,131.705 L35.1565028,132.272 C33.9285028,133.514 31.6405028,135.827 30.1425028,135.826 C29.9325028,135.826 29.6425028,135.782 29.2905028,135.434 L29.2915028,135.433 Z M61.6615028,137.02 C61.1755028,137.02 60.6915028,137.106 60.2145028,137.227 C60.7995028,136.024 61.1785028,134.782 61.1825028,133.55 C61.1885028,131.946 60.5905028,130.538 59.4055028,129.366 C58.4525028,128.422 57.2555028,127.922 55.9455028,127.922 C55.1055028,127.922 54.2615028,128.125 53.4195028,128.469 C53.3715028,126.689 52.3835028,125.409 51.5335028,124.637 C49.0095028,122.335 46.0905028,123.087 43.5715028,124.625 C43.5815028,124.489 43.5935028,124.352 43.5915028,124.217 C43.5775028,122.953 43.0945028,121.837 42.1965028,120.997 C41.3965028,120.244 40.4135028,119.847 39.3585028,119.847 C36.6845028,119.847 34.1865028,122.324 32.1805028,124.314 L31.7825028,124.708 C30.6895028,125.784 28.6505028,127.928 27.2825028,130.198 C24.8825028,134.173 25.8325028,136.438 27.0525028,137.638 C27.9185028,138.493 28.9895028,138.946 30.1445028,138.946 C30.6785028,138.946 31.2015028,138.826 31.7195028,138.658 C31.1495028,140.672 31.3295028,142.588 32.8695028,144.103 C34.0295028,145.248 35.4345028,145.816 36.9465028,145.813 C37.5265028,145.813 38.1235028,145.721 38.7285028,145.553 C38.4985028,147.223 38.8545028,148.788 40.1585028,150.071 C41.2085028,151.108 42.4485028,151.633 43.8425028,151.634 C45.4425028,151.634 47.0185028,150.909 48.4765028,149.907 C48.1365028,151.489 48.3435028,153.011 49.4765028,154.295 C50.2365028,155.157 51.2785028,155.613 52.4865028,155.613 L52.4885028,155.613 C57.1365028,155.613 63.4885028,148.613 65.3365028,144.073 C66.6365028,140.879 65.8045028,139.163 64.8765028,138.29 C63.9915028,137.455 62.8795028,137.016 61.6615028,137.016 L61.6615028,137.02 Z M52.6235028,107.016 C52.6235028,100.206 63.4835028,92.443 68.7015028,88.714 C69.8315028,87.904 70.7265028,87.267 71.3235028,86.779 C74.9065028,83.857 82.4385028,82.113 91.4715028,82.113 C98.4435028,82.113 104.201503,85.281 107.804503,87.937 C112.322503,91.275 126.597503,91.329 128.168503,91.331 C129.044503,91.329 129.752503,90.629 129.748503,89.767 C129.748503,88.905 129.038503,88.207 128.164503,88.207 L128.014503,88.207 C122.321503,88.207 112.446503,87.463 109.704503,85.437 C105.714503,82.495 99.3145028,78.989 91.4705028,78.989 C81.5765028,78.989 73.4965028,80.951 69.3025028,84.373 C68.7825028,84.796 67.8825028,85.441 66.8375028,86.185 C60.7795028,90.517 49.5145028,98.568 49.4525028,106.945 C49.3795028,107.829 48.8625028,115.462 52.3645028,119.239 C53.6925028,120.672 55.3945028,121.399 57.4245028,121.399 C59.2095028,121.399 60.6525028,120.842 61.7145028,119.744 C63.9945028,117.384 63.7905028,113.197 63.6245028,109.834 C63.5595028,108.526 63.4715028,106.734 63.6425028,106.344 C65.4895028,104.004 69.4885028,100.539 72.2085028,100.539 C73.0835028,100.539 73.7935028,99.839 73.7935028,98.977 C73.7935028,98.114 73.0835028,97.417 72.2075028,97.417 C67.6655028,97.417 62.6775028,102.477 61.1395028,104.427 C60.2395028,105.565 60.3295028,107.419 60.4575028,109.987 C60.5875028,112.607 60.7625028,116.197 59.4175028,117.589 C59.1335028,117.882 58.6175028,118.275 57.4225028,118.275 C56.2895028,118.275 55.4275028,117.912 54.7055028,117.135 C52.4655028,114.725 52.4355028,109.115 52.6135028,107.155 C52.6185028,107.109 52.6215028,107.062 52.6215028,107.015 L52.6235028,107.016 Z" id="Shape" fill="#2E2C2D"></path>
        </g>
    </g>
</svg>