<?xml version="1.0" encoding="UTF-8"?>
<svg width="1139px" height="1139px" viewBox="0 0 1139 1139" version="1.1" xmlns="http://www.w3.org/2000/svg" xmlns:xlink="http://www.w3.org/1999/xlink">
    <!-- Generator: Sketch 48.2 (47327) - http://www.bohemiancoding.com/sketch -->
    <title>logo</title>
    <desc>Created with Sketch.</desc>
    <defs></defs>
    <g id="Page-1" stroke="none" stroke-width="1" fill="none" fill-rule="evenodd">
        <g id="logo" fill="#FE504F">
            <g id="Page-1" transform="translate(67.000000, 56.000000)">
                <path d="M791.7244,345.3731 C798.5994,344.8791 803.1464,341.2481 802.6294,337.0541 C802.1444,333.1161 799.7744,331.0001 795.3064,331.3621 C794.7424,336.0701 796.2204,341.0221 791.7244,345.3731 M708.1424,369.8451 C702.4824,360.9431 687.2464,358.4691 679.7034,364.6091 C688.4474,369.9031 697.8764,369.4231 708.1424,369.8451 M853.5994,530.9441 C858.0044,527.7021 860.2984,523.1651 862.6774,518.7231 C866.6764,511.2551 863.8544,505.9701 854.3554,504.1261 C854.5304,513.0821 853.9054,521.8941 853.5994,530.9441 M747.3394,152.1871 C753.4264,155.0041 758.5754,156.1071 763.6854,157.3031 C765.2914,157.6791 766.7194,157.2051 767.3704,155.5511 C769.6524,149.7431 771.7734,143.8851 772.6504,136.4791 C763.5014,141.0991 756.0634,146.3581 747.3394,152.1871 M740.6334,141.6411 C748.5764,137.3711 756.0944,132.3381 763.6574,127.1881 C762.1934,125.2731 760.7254,125.4431 759.4964,125.2711 C756.8784,124.9041 754.2244,124.6831 751.5804,124.6401 C737.1464,124.4071 735.7714,126.2121 739.5874,140.1851 C739.6684,140.4791 739.9594,140.7171 740.6334,141.6411 M719.9584,362.8911 C723.6064,366.8061 725.9194,371.2781 731.6284,371.2871 C741.2694,371.3021 750.9294,371.8411 760.5144,370.3041 C762.5674,369.9751 764.8674,370.0341 765.9444,367.6431 C758.2694,362.0701 731.8214,359.1241 719.9584,362.8911 M482.1224,75.3131 C488.8854,74.8171 493.2034,68.5821 497.6214,62.5651 C498.8574,60.8831 500.5454,58.9761 499.2724,56.7101 C497.8924,54.2541 495.2034,53.8191 492.7204,54.0601 C484.8504,54.8231 478.4484,58.3511 474.3724,65.2541 C470.9244,71.0931 473.6174,75.4071 482.1224,75.3131 M171.7004,804.3471 C170.7744,804.4161 169.8284,804.3871 168.9274,804.5721 C156.5694,807.1181 144.2164,809.6871 131.8664,812.2691 C130.2324,812.6111 128.6004,813.0601 127.4254,814.3551 C120.5124,821.9821 115.2234,831.2271 105.4414,836.1341 C128.1754,826.8081 150.2294,816.4061 171.7004,804.3471 M479.8854,326.2691 L478.4804,325.2971 C467.2554,332.0741 456.0304,338.8511 444.1574,346.0181 C445.6764,346.9171 446.1714,347.3781 446.7474,347.5271 C455.8054,349.8681 465.1124,350.2811 474.3754,351.0071 C475.7454,351.1141 477.2564,350.7521 477.5994,349.2231 C479.2984,341.6401 479.3674,333.9371 479.8854,326.2691 M706.1214,163.8571 C711.1324,160.7511 715.3224,157.7991 719.8264,155.4511 C725.7524,152.3611 729.3854,148.5161 727.1304,141.2681 C726.6094,139.5891 727.0084,137.6301 726.9424,135.8021 C726.5864,125.9811 726.2374,125.6681 716.7884,126.5611 C715.9614,126.6391 715.1324,126.7131 714.3024,126.7511 C709.6834,126.9611 707.4804,129.3631 707.3084,133.9931 C707.1664,137.8041 706.3564,141.6081 706.4164,145.4061 C706.5084,151.1641 704.1944,156.8561 706.1214,163.8571 M436.4044,336.8781 C449.2444,329.0771 461.7454,321.4801 475.2004,313.3051 C466.2514,307.5191 457.7914,304.0701 449.8604,299.6671 C446.2434,297.6591 444.5394,298.8431 443.1704,302.3711 C439.7294,311.2391 436.9774,320.2871 435.4784,329.6841 C435.1474,331.7581 434.7054,333.9511 436.4044,336.8781 M511.2154,305.8281 C505.3794,308.7921 499.4024,312.1921 493.9534,316.4681 C493.1564,317.0941 492.6514,318.4691 492.5504,319.5471 C491.7194,328.4661 491.0164,337.3961 490.2704,346.3231 C489.9614,350.0181 491.8394,351.5031 495.3284,351.2721 C499.6314,350.9871 503.9254,350.5491 508.2314,350.3471 C511.5234,350.1921 513.0074,348.6751 512.9884,345.3621 C512.9194,333.4011 512.9474,321.4391 512.9054,309.4781 C512.9004,308.3511 512.9704,307.1211 511.2154,305.8281 M663.1644,258.8851 C663.0074,255.9301 661.1514,255.1201 659.8414,253.9571 C653.6234,248.4351 647.4534,242.8521 641.0724,237.5221 C626.4154,225.2781 632.4844,225.3771 615.6464,235.6881 C615.2214,235.9481 614.8314,236.2691 614.3964,236.5111 C611.3974,238.1751 611.5594,240.2121 612.8924,243.1561 C616.4684,251.0451 622.0014,255.5041 630.8384,256.8901 C641.5254,258.5661 652.0954,260.1841 663.1644,258.8851 M709.7384,176.3111 C710.8424,177.3601 711.2344,177.9581 711.7864,178.2211 C722.8924,183.5021 734.0234,188.7341 745.1364,194.0031 C747.9434,195.3331 749.5494,193.9201 750.7484,191.6311 C753.8334,185.7431 756.8084,179.7971 759.9584,173.9441 C761.8604,170.4121 760.4874,168.8121 757.0284,167.8991 C750.1204,166.0751 743.2454,164.1221 736.3594,162.2131 C734.7254,161.7601 733.0564,161.4341 731.5034,162.3091 C724.1494,166.4481 717.0144,170.9251 709.7384,176.3111 M620.3224,169.1601 C617.2834,170.0711 616.4844,171.8501 615.3934,173.2511 C608.7024,181.8451 604.0874,191.6021 599.2114,201.2801 C594.8104,210.0141 595.6874,217.4061 601.8224,224.5871 C601.9304,224.7121 602.0194,224.8571 602.0944,225.0051 C603.5814,227.9461 605.6284,228.0531 608.2054,226.3591 C612.2384,223.7081 616.2964,221.0901 620.4254,218.5951 C623.1954,216.9211 624.1244,214.6111 623.8654,211.4681 C623.0974,202.1931 622.4974,192.9051 621.7534,183.6281 C621.3754,178.9201 620.8284,174.2261 620.3224,169.1601 M655.3844,143.1721 C647.0784,146.3691 639.8324,150.2831 633.3434,155.5561 C631.7694,156.8351 631.7404,158.6671 631.8784,160.5941 C632.4284,168.2271 632.5204,175.9111 633.4364,183.4981 C634.3824,191.3431 633.6844,199.4001 636.0754,207.2651 C639.7134,207.0491 641.9474,204.5611 644.6914,203.1571 C648.8494,201.0291 651.0734,198.0191 651.4444,193.0461 C652.3224,181.2721 653.8624,169.5491 654.9694,157.7901 C655.3994,153.2161 656.8444,148.6481 655.3844,143.1721 M501.9774,239.0271 C496.4134,240.7501 491.2684,243.8151 486.3184,247.2181 C481.8594,250.2831 481.8184,251.1061 485.8204,254.5871 C494.6174,262.2391 503.3934,269.9161 512.2824,277.4611 C523.3454,286.8511 519.6204,286.1921 531.9144,279.1361 C533.6474,278.1411 535.2844,276.9691 537.0504,276.0431 C540.7824,274.0871 540.8184,272.0491 537.7184,269.2851 C527.2764,259.9731 516.9524,250.5291 506.5604,241.1611 C505.3394,240.0601 504.1154,238.8361 501.9774,239.0271 M664.7724,190.2061 C672.3914,185.4221 679.1174,180.8821 686.1554,176.8941 C690.5644,174.3951 692.4924,170.9761 692.8474,166.1131 C693.5994,155.8341 694.4964,145.5651 695.4614,135.3041 C695.8004,131.6941 694.5584,130.1971 690.9364,131.1571 C685.4694,132.6051 680.0484,134.2431 674.5424,135.5221 C670.2254,136.5241 668.7064,139.2821 668.3284,143.3651 C667.4544,152.7991 666.1474,162.1991 665.5034,171.6461 C665.1134,177.3831 663.3934,183.0961 664.7724,190.2061 M509.6284,292.5671 C508.9754,291.1311 508.8894,290.5501 508.5524,290.2571 C497.2504,280.4141 485.9304,270.5931 474.5984,260.7851 C472.6574,259.1051 471.0114,259.7801 469.3944,261.4441 C463.0924,267.9271 457.6994,275.0891 453.0134,282.8141 C451.3264,285.5951 451.9584,287.4011 454.7604,288.8291 C464.7034,293.8941 474.6124,299.0301 484.5524,304.1031 C486.0404,304.8621 487.6804,305.5971 489.3164,304.6381 C496.0314,300.6991 502.7044,296.6901 509.6284,292.5671 M546.6244,284.1781 C540.5874,287.8121 535.1534,291.2921 529.5144,294.4011 C525.8804,296.4051 524.1084,299.0711 524.3914,303.2331 C525.2624,316.0291 525.3384,328.8481 525.2264,341.6661 C525.1924,345.5751 527.1124,346.1911 530.3344,345.1281 C538.5674,342.4111 546.6244,339.2741 554.4474,335.5131 C557.2464,334.1671 557.8064,332.3061 557.1674,329.4501 C554.8434,319.0541 552.7094,308.6151 550.4114,298.2131 C549.4514,293.8641 548.9824,289.3701 546.6244,284.1781 M460.3124,70.1781 C462.5514,58.5591 468.6434,51.2511 477.6824,46.3461 C486.8674,41.3621 496.3304,40.9081 506.2444,45.2851 C511.3164,31.4541 524.3884,25.1981 534.0734,14.9131 C527.6724,12.5361 521.7214,11.6241 515.8364,11.7501 C494.9624,12.1971 478.7734,22.1111 465.8254,37.8391 C461.8944,42.6131 458.8984,48.1211 457.8154,54.2901 C456.9604,59.1621 455.9834,64.2811 460.3124,70.1781 M519.5864,45.4781 C516.9944,51.3551 514.3364,56.2981 512.5834,61.5431 C505.6414,82.3121 485.9944,93.0731 465.0314,87.2761 C463.4224,86.8311 461.9154,86.1581 460.3314,87.4331 C457.5674,89.6581 455.0674,98.4241 455.8544,102.1761 C457.0724,107.9891 461.1164,109.8771 466.3464,110.2051 C480.4124,111.0851 493.4024,107.8711 505.0844,99.8181 C522.7154,87.6631 526.0254,62.6151 519.5864,45.4781 M419.9234,151.3191 C424.3044,145.6231 427.1374,140.3031 431.9304,136.9651 C436.2704,133.9411 437.5864,129.8881 437.8694,125.0491 C438.6414,111.8061 441.5144,99.0561 446.8624,86.8791 C448.8264,82.4061 447.8804,80.9841 442.7924,80.6451 C434.8404,80.1161 428.1494,83.1101 422.3084,88.2681 C415.0394,94.6861 411.6284,103.0591 410.7864,112.4641 C409.5784,125.9421 413.4044,138.2971 419.9234,151.3191 M670.6234,200.6521 C671.6724,201.9841 671.8934,202.5261 672.2894,202.7311 C688.2174,210.9841 704.1644,219.2011 720.0984,227.4421 C722.5094,228.6891 724.1584,227.5771 725.7874,225.9081 C730.7934,220.7801 735.2084,215.1851 739.3934,209.3741 C741.4844,206.4711 740.5234,204.9931 737.6944,203.6761 C725.0404,197.7861 712.4234,191.8201 699.7744,185.9201 C698.2814,185.2241 696.6424,184.4581 695.0144,185.4641 C687.0024,190.4141 679.0224,195.4151 670.6234,200.6521 M712.5364,238.0711 C711.2684,236.9531 710.7414,236.2681 710.0454,235.9081 C693.6614,227.4261 677.2584,218.9771 660.8544,210.5301 C659.4974,209.8321 657.9794,209.1861 656.5614,209.9671 C651.0904,212.9811 645.6824,216.1161 640.7744,220.2851 C641.5264,221.4051 641.8604,222.2141 642.4504,222.7351 C654.1694,233.0711 665.9134,243.3791 677.6664,253.6771 C678.9694,254.8181 680.5084,255.5361 682.2624,254.9911 C693.3214,251.5501 703.2444,246.1071 712.5364,238.0711 M518.2054,234.3831 C518.6864,235.3681 518.7954,235.9221 519.1304,236.2281 C529.4354,245.6481 539.7744,255.0321 550.0784,264.4551 C552.3024,266.4881 554.3404,265.5451 556.4194,264.2931 C562.8284,260.4331 569.2374,256.5721 575.6444,252.7091 C580.8514,249.5701 586.0564,246.4281 591.2894,243.2701 C589.6224,238.7371 586.3144,235.9581 584.3084,232.3791 C581.7734,227.8581 578.2904,227.1611 573.4224,227.9811 C559.3344,230.3531 545.1434,231.7291 530.7994,231.2191 C526.5424,231.0671 522.2214,231.7441 518.2054,234.3831 M621.5524,67.4871 C639.7664,87.6641 644.3984,110.6331 639.2174,136.5621 C652.4314,131.6961 664.4634,128.1541 667.3974,112.5591 C670.2524,97.3791 665.9144,82.6271 653.5254,73.5451 C644.3464,66.8161 634.2964,63.5981 621.5524,67.4871 M760.1124,350.0111 C757.7564,346.4421 754.9454,342.7991 752.7874,338.8021 C745.8654,325.9771 736.0574,320.5551 720.7934,321.1601 C702.0404,321.9021 687.2534,329.5141 673.6754,341.1061 C669.8234,344.3941 668.6724,348.9491 668.3374,354.0961 C671.2534,354.1921 673.0884,352.9371 675.0094,352.0741 C677.7544,350.8391 680.5204,349.4091 683.5474,349.5041 C708.1004,350.2721 732.7454,347.2381 757.2214,351.2401 C758.0314,351.3731 758.8834,351.4351 760.1124,350.0111 M534.7244,31.0051 C535.7884,31.5941 536.1894,31.9551 536.6404,32.0361 C537.6194,32.2111 538.6224,32.2511 539.6174,32.3321 C562.9414,34.2351 584.8704,40.7601 604.3574,53.7951 C610.0614,57.6111 614.5914,57.9151 620.3254,55.3491 C622.9124,54.1911 624.0194,53.0181 623.1544,50.1001 C618.5394,34.5381 609.9254,22.2891 593.9934,17.0181 C577.5774,11.5871 561.7354,14.4411 546.7114,22.4341 C542.5174,24.6651 538.1624,26.8081 534.7244,31.0051 M729.7564,957.1951 C730.1534,954.4011 730.4124,951.4771 732.0224,948.8231 C735.2954,943.4271 734.8944,942.6601 728.8814,941.3301 C727.5824,941.0431 726.2504,940.9081 724.9514,940.6271 C718.1214,939.1491 711.2784,937.7271 704.4794,936.1141 C701.7054,935.4571 699.5494,933.6931 699.4064,930.6481 C699.2514,927.3811 701.3384,925.5011 704.2704,924.4801 C705.0554,924.2071 705.8914,924.0671 706.6544,923.7461 C708.1094,923.1351 710.3524,923.1251 710.2214,920.9291 C710.0904,918.7071 708.9774,916.3711 706.6504,916.0131 C702.2594,915.3371 697.5584,914.4521 694.5654,919.3121 C693.2374,921.4691 691.2494,922.4771 688.7504,922.6451 C678.4174,923.3421 668.5404,923.1181 658.7474,918.0671 C648.1734,912.6131 637.3814,906.8781 625.3214,905.2471 C618.3614,904.3071 613.0824,901.6361 609.4334,895.5591 C608.1904,893.4891 606.6404,891.0221 603.8314,891.0321 C599.9054,891.0451 595.9794,891.5801 591.8844,891.9041 C592.0264,893.6051 593.1694,894.3961 594.1114,895.2491 C608.6594,908.4221 624.0174,920.7391 636.4544,936.1241 C638.3214,938.4341 641.3164,940.0501 644.4934,938.1521 C656.4024,931.0421 669.0434,932.4421 681.8264,934.5981 C687.8684,935.6161 692.9764,937.9211 696.1724,943.4251 C697.8134,946.2491 699.9274,947.3631 703.1974,946.0321 C705.9654,944.9051 708.3834,946.2931 710.6924,947.7091 C715.0914,950.4091 719.4544,953.1681 723.8984,955.7921 C725.5654,956.7771 727.2624,958.0351 729.7564,957.1951 M437.6234,149.8801 C434.3504,150.7151 433.5194,152.8661 432.4534,154.6551 C425.4394,166.4311 423.4814,179.2231 425.3284,192.6361 C428.7204,217.2821 445.8374,238.1161 475.9054,233.2621 C482.8504,232.1411 489.6714,230.4801 495.8534,226.0461 C479.7004,219.5901 465.7604,210.6611 455.3404,196.8101 C444.9394,182.9831 440.3164,166.9641 437.6234,149.8801 M598.6764,252.2371 C594.7054,254.7971 591.5484,256.9261 588.3014,258.9081 C579.6354,264.1961 570.9264,269.4151 562.2424,274.6751 C560.0514,276.0021 558.0704,277.3511 558.7774,280.5491 C561.9404,294.8391 565.0244,309.1481 568.0794,323.4621 C568.7094,326.4161 570.1894,327.0551 572.6694,325.4901 C590.7394,314.0851 605.7304,299.7791 615.2254,280.2951 C616.0804,278.5401 616.4214,276.7681 615.2174,275.0921 C609.7964,267.5501 604.3304,260.0411 598.6764,252.2371 M467.7554,123.6321 C472.2174,130.9861 477.1154,137.3561 483.3794,142.5691 C484.4584,143.4671 486.5664,143.3421 488.1974,143.3321 C499.8074,143.2571 511.0704,141.2431 521.8154,136.7731 C541.0224,128.7831 552.6804,114.6581 556.0824,94.0071 C557.9654,82.5781 557.8014,71.0801 555.8324,59.7191 C553.1184,44.0571 555.2554,46.1321 540.4934,44.2461 C533.2364,43.3181 532.7514,43.9531 533.6144,51.1401 C535.0974,63.5041 534.9724,75.7871 529.6854,87.4321 C519.9394,108.8981 501.9574,118.4221 479.7014,121.5641 C475.9694,122.0921 472.1814,122.1911 467.7554,123.6321 M701.4734,970.9941 C697.6724,967.9341 693.0014,966.3101 688.4354,965.3471 C679.1784,963.3941 672.8234,956.4311 664.6794,952.6501 C663.8644,952.2721 663.2444,951.2661 662.7614,950.4201 C659.6424,944.9621 658.7164,944.1091 653.4794,947.5471 C645.2154,952.9731 637.9884,952.1431 630.0474,947.0251 C624.6234,943.5311 618.4974,941.1031 612.6114,938.3591 C609.8634,937.0781 607.4094,935.4661 605.0414,933.5891 C584.3464,917.1871 565.7494,898.6371 548.5364,878.6561 C545.2234,874.8101 536.6864,874.8791 533.2234,878.9211 C536.0494,883.1891 539.5594,886.9871 543.2754,890.5051 C553.0934,899.7971 559.9144,910.7661 563.1144,923.9471 C563.6244,926.0471 564.1134,928.2171 565.0614,930.1321 C567.9804,936.0291 566.0654,940.4581 561.7214,944.8351 C558.3834,948.1981 554.5374,948.6521 550.3074,948.6581 C547.2454,948.6621 546.3274,950.4991 546.4014,953.2381 C546.4744,955.9391 547.8364,957.3731 550.4864,957.0301 C556.3694,956.2701 562.4224,956.7501 567.9774,953.6851 C571.4374,951.7771 575.3784,950.7171 579.1484,949.4031 C583.8244,947.7721 588.0624,948.5891 592.5354,950.9051 C605.2504,957.4911 618.1944,963.6361 631.0674,969.9151 C632.3704,970.5521 633.6524,971.5371 635.5334,970.9001 C635.6724,970.4151 635.9594,969.8131 636.0074,969.1931 C636.5074,962.6751 642.0824,961.9031 646.5434,960.0481 C650.3534,958.4631 652.8734,960.9121 655.0404,963.6001 C656.4654,965.3671 658.1624,966.6011 660.3844,967.0111 C670.8964,968.9511 681.0394,972.2691 691.1484,975.6031 C696.2584,977.2901 699.4164,976.1741 701.4734,970.9941 M451.1984,122.1731 C449.2194,123.3191 449.3744,125.2881 449.3314,127.0331 C449.0744,137.6921 449.1524,148.3061 451.3204,158.8511 C458.9984,196.2031 494.3484,223.1851 530.4644,218.2361 C546.4794,216.0411 562.5074,214.4831 578.6054,213.4301 C581.8244,213.2201 583.3144,211.8811 584.1924,208.9171 C586.4654,201.2401 589.5034,193.8451 592.9714,186.6251 C593.4994,185.5251 594.6074,184.3761 593.4174,183.0221 C591.9264,182.6371 590.8014,183.5261 589.6224,184.0541 C564.1704,195.4341 539.0924,193.9921 514.4554,181.6401 C489.5124,169.1341 470.6834,149.9191 455.2634,127.0381 C454.0974,125.3061 453.4654,123.0531 451.1984,122.1731 M702.8814,493.1791 C701.4964,494.8991 700.9624,495.3381 700.7144,495.9031 C692.1354,515.4201 679.8974,532.2731 663.9774,546.4511 C662.4004,547.8541 661.7084,549.6141 661.3434,551.6691 C653.7874,594.1861 636.0534,632.1591 610.0104,666.4091 C607.9394,669.1321 605.8364,671.8301 603.7484,674.5411 C604.1474,674.9111 604.5464,675.2811 604.9454,675.6511 C641.6244,656.0191 675.9424,633.5341 691.9064,592.2941 C704.0884,560.8241 712.3884,528.5381 702.8814,493.1791 M327.7934,770.2621 C324.9084,769.5951 322.5344,770.5981 320.1594,771.1281 C302.6174,775.0451 285.1674,779.4261 267.5374,782.8811 C257.5914,784.8301 249.9344,788.9241 242.6554,796.4261 C209.3004,830.8061 172.1494,860.8871 133.8794,889.6031 C132.2414,890.8331 130.2674,891.7551 128.7134,894.6991 C131.4664,893.6591 133.2994,893.0471 135.0694,892.2871 C181.8854,872.1781 228.6784,852.0151 275.5324,831.9951 C280.0044,830.0841 283.3914,827.3351 286.2774,823.4821 C298.6604,806.9531 311.5424,790.8171 325.1314,775.2541 C326.2994,773.9171 327.8514,772.7381 327.7934,770.2621 M504.6904,711.4071 C507.0944,711.9591 508.9544,711.1251 510.8234,710.5481 C524.0264,706.4671 537.1584,702.1361 550.4324,698.3021 C563.4654,694.5371 574.3524,687.3871 583.7044,677.8841 C614.9684,646.1161 634.8864,608.0001 646.1724,565.1371 C646.5274,563.7891 647.4024,562.2811 645.7924,561.0731 C644.1014,560.8811 642.9264,561.9341 641.6764,562.6921 C632.6824,568.1521 623.2904,572.8251 613.4954,576.6371 C610.2054,577.9171 608.0594,579.9771 606.1824,582.9531 C577.8134,627.9091 545.5164,669.7621 507.5814,707.1321 C506.4484,708.2481 504.8524,709.1101 504.6904,711.4071 M228.2054,792.4071 C225.5244,792.0041 223.3684,792.7061 221.3034,793.8381 C198.7994,806.1651 175.7154,817.3451 152.5354,828.3171 C114.6074,846.2711 76.5684,863.9881 37.3454,879.0021 C35.6644,879.6441 34.5824,880.8261 33.7824,882.3221 C28.3554,892.4751 21.9574,902.0231 15.7184,911.6761 C14.5134,913.5411 12.7444,915.4341 14.4524,918.0261 C16.2384,920.7381 18.6454,920.1121 21.1424,919.5481 C32.1824,917.0511 43.1574,914.1891 54.2874,912.1921 C80.1604,907.5511 103.6414,897.6651 124.6354,881.7871 C159.8664,855.1431 194.1294,827.3611 225.7774,796.4761 C226.8134,795.4651 228.1904,794.6161 228.2054,792.4071 M588.7074,585.2811 C587.5944,585.2811 586.7584,585.1381 585.9894,585.3031 C575.2394,587.6071 564.3984,589.3471 553.4294,590.0641 C548.6224,590.3791 545.1204,592.3621 541.8664,595.8811 C521.2844,618.1381 499.6794,639.3851 477.6394,660.1921 C447.8524,688.3131 418.1614,716.5461 384.7254,740.4451 C383.6984,741.1801 382.3024,741.7181 382.3094,743.4361 C383.9834,744.3031 385.6024,743.4661 387.1194,743.0901 C405.5324,738.5251 423.8374,733.4851 442.3414,729.3281 C466.5624,723.8891 486.4904,711.6091 503.7564,694.0341 C534.7974,662.4371 562.1114,627.9001 586.6754,591.1191 C587.7484,589.5141 589.2944,588.0131 588.7074,585.2811 M509.6154,165.2761 C528.2374,177.1651 548.1584,183.3781 570.3574,178.1051 C593.3564,172.6421 610.1144,157.9641 624.8064,140.4171 C625.6344,139.4281 626.2624,138.1261 626.5724,136.8691 C631.6054,116.4881 630.2954,97.1151 616.5784,80.1171 C604.6694,65.3591 588.6374,56.7531 571.0054,50.7731 C569.8224,50.3721 568.4414,49.8011 567.1334,51.1301 C566.6714,53.6791 567.3844,56.2601 567.7504,58.8651 C569.4954,71.2811 570.2024,83.7131 567.8454,96.1271 C561.8564,127.6651 541.7784,145.1901 511.5174,152.4581 C507.0534,153.5311 502.5034,154.2431 497.0234,155.3111 C500.9324,159.9961 505.3684,162.5641 509.6154,165.2761 Z M769.4834,341.8491 C770.3204,339.5591 770.6394,338.9821 770.7374,338.3711 C772.6024,326.7501 779.4824,320.0361 791.1014,318.5291 C804.6314,316.7741 815.5174,326.8221 814.2544,339.9011 C813.3884,348.8811 804.1084,356.8941 794.0774,357.6181 C788.7074,358.0061 783.6734,356.7101 778.8984,354.7351 C777.8044,356.8951 778.7204,358.2661 778.9934,359.6931 C781.3484,372.0171 776.0244,379.5751 763.6574,381.8511 C758.8524,382.7341 754.0334,382.5311 749.2174,382.7781 C746.7944,382.9021 744.3074,382.8271 741.7424,385.1851 C782.0984,425.1331 823.7204,463.0001 867.9274,497.3881 C870.0724,496.2631 870.2824,495.0081 870.4814,493.9291 C872.7984,481.3471 875.7044,468.8061 875.9274,455.9691 C876.3224,433.2321 870.3364,411.4791 865.0344,389.6341 C859.4564,366.6531 851.7884,344.7301 837.4384,325.3881 C826.8924,311.1741 813.5594,301.6161 797.1014,295.6391 C784.2794,290.9821 771.1704,289.6971 757.7614,290.7751 C745.1454,291.7901 733.0754,294.7141 722.7944,302.6961 C721.3214,303.8411 719.3844,304.6691 718.8694,307.3181 C730.0454,307.0921 740.2154,308.9951 749.5484,315.1801 C759.0074,321.4481 764.0054,330.8781 769.4834,341.8491 M460.4684,570.4431 C461.7474,571.9841 463.4364,572.1061 465.0744,572.4021 C496.9644,578.1771 528.9804,581.3531 561.3844,577.4031 C598.9354,572.8261 632.6984,559.6021 660.4984,533.3341 C676.0024,518.6841 687.3784,501.2421 693.2454,480.4711 C694.4144,476.3311 693.4874,473.1091 690.7274,469.9301 C677.4724,454.6641 660.6674,451.4341 641.7374,455.2241 C625.9814,458.3781 611.8564,465.4441 598.2624,473.6641 C551.3024,502.0561 507.1144,534.4601 463.1574,567.1931 C462.1184,567.9671 460.8464,568.5911 460.4684,570.4431 M811.5914,533.7031 C812.6754,532.5221 813.6544,531.6291 814.4274,530.5841 C817.6214,526.2691 819.8344,521.4391 821.8944,516.5011 C824.2074,510.9531 826.7854,509.8111 831.9414,512.3301 C834.4554,513.5591 835.6964,512.7791 836.7664,510.7971 C838.8234,506.9891 840.3794,502.8371 842.8904,499.3691 C845.5824,495.6501 844.3084,493.8241 841.2714,491.3131 C829.3324,481.4451 817.5064,471.4351 805.8254,461.2631 C778.4304,437.4061 752.1864,412.3121 726.3504,386.7881 C724.3304,384.7931 722.3754,382.7771 719.2154,382.6331 C712.9024,382.3461 706.4874,382.5251 700.3104,381.4151 C693.2264,380.1401 690.3504,383.3871 687.6794,389.2491 C678.2874,409.8691 666.1114,428.2921 645.1384,439.1231 C644.2634,439.5751 643.4774,440.2421 642.7484,440.9151 C642.4384,441.2011 642.3814,441.7601 642.1984,442.2231 C647.2824,442.2231 652.2294,442.1911 657.1764,442.2281 C675.5944,442.3661 690.4674,449.9561 701.5174,464.4501 C716.0874,483.5601 719.5754,505.9351 718.8614,529.1891 C718.5884,538.0331 716.1824,546.7371 720.1054,555.5431 C721.9114,559.5971 723.8994,562.3501 728.2324,563.3201 C736.2954,565.1281 742.8914,561.7721 749.1864,557.4341 C755.6274,552.9931 761.7914,548.1201 769.1164,545.1111 C771.9324,543.9551 774.7184,542.7701 777.5534,545.1091 C780.3604,547.4271 780.1014,550.2691 779.1154,553.3001 C778.8704,554.0511 778.4754,554.8971 779.7034,555.8661 C783.0884,554.1231 785.5904,551.4931 786.9024,547.7011 C788.6894,542.5311 791.7504,538.2391 795.9694,534.7791 C802.0774,529.7691 804.5144,529.5631 811.5914,533.7031 M161.3184,793.1291 C163.1934,793.8851 164.9314,793.1631 166.6824,792.7971 C214.7554,782.7291 262.5554,771.3761 310.6524,761.4861 C333.9384,756.6971 354.5954,747.6311 373.4204,733.6061 C381.1674,727.8341 389.1654,722.3751 396.6594,716.2931 C442.4024,679.1691 484.2434,637.8571 525.4284,595.8521 C526.4324,594.8291 527.8014,593.9011 527.3924,591.9581 C527.0844,591.7201 526.7424,591.2621 526.3174,591.1661 C525.1904,590.9111 524.0304,590.6881 522.8794,590.6711 C498.9794,590.3051 475.4714,586.7201 452.1474,581.8351 C447.1684,580.7921 443.3944,581.7201 439.2874,584.8161 C393.6644,619.2231 348.1744,653.8181 303.7994,689.8071 C259.2304,725.9521 211.9894,758.2561 164.3344,790.0441 C163.1734,790.8181 161.4794,791.1921 161.3184,793.1291 M853.7524,550.8051 C850.2334,553.5361 847.1604,556.0151 843.9854,558.3551 C841.4174,560.2481 838.6374,561.3091 835.7744,558.9201 C833.2114,556.7821 833.2324,554.0471 834.3014,551.1711 C835.0564,549.1421 835.9164,547.1461 836.5834,545.0891 C838.2534,539.9321 840.3114,534.8461 840.1834,528.7951 C836.7454,529.9731 835.3474,532.8011 833.2354,534.7541 C830.5644,537.2251 828.4364,540.6771 824.6884,541.3861 C821.2604,542.0331 819.0864,543.9451 816.8884,546.2911 C810.5594,553.0481 803.3704,558.8651 794.7874,562.3021 C790.0624,564.1941 785.9184,566.6611 781.8574,569.5501 C774.4764,574.8001 766.4564,578.8571 757.8374,581.6441 C751.2764,583.7641 748.3604,581.6941 748.0054,574.9431 C747.9724,574.3211 747.7724,573.7091 747.5514,572.6041 C741.6394,574.6521 735.8704,575.9841 729.7894,575.6081 C723.4524,575.2161 718.1744,572.2141 713.1194,568.8571 C712.4434,569.7311 712.0274,570.0781 711.8634,570.5181 C711.4004,571.7631 710.9734,573.0301 710.6504,574.3181 C700.5244,614.7031 676.4264,644.6631 642.1884,667.4751 C608.1054,690.1841 570.7224,705.0811 531.7274,716.7501 C475.3694,733.6141 418.3224,747.7861 361.1444,761.4881 C355.9584,762.7311 351.5384,764.8681 347.7264,768.6561 C329.5834,786.6811 314.0804,806.9231 298.4154,827.0311 C297.7054,827.9421 297.0334,828.9351 297.2224,830.2851 C298.3014,831.9821 300.2124,832.1341 301.9424,832.6001 C309.5024,834.6331 317.2224,836.1941 324.5994,838.7481 C339.1454,843.7831 353.6514,845.5081 368.5194,840.4331 C369.9244,839.9531 371.4474,839.7981 372.9254,839.5601 C376.8784,838.9241 380.2894,839.7201 382.2944,843.5541 C384.1894,847.1771 387.0424,847.6031 390.7204,846.7581 C400.2924,844.5541 410.0234,842.9611 419.4834,840.3691 C428.3784,837.9331 436.4324,838.2901 444.1164,843.7851 C446.6624,845.6061 449.6664,846.8241 452.5404,848.1451 C458.2784,850.7811 464.0054,853.3401 460.3424,861.0191 C462.2704,862.4761 463.5654,861.7241 464.7884,861.4121 C473.1804,859.2731 481.4764,856.6651 489.9584,855.0001 C498.2464,853.3741 506.7074,852.6331 513.7324,859.2181 C514.9324,860.3421 516.4934,861.0741 517.8594,862.0261 C520.7974,864.0741 523.4394,863.9231 525.7244,861.0171 C527.7244,858.4751 530.2984,858.0501 533.3404,858.6351 C538.3214,859.5921 538.9804,858.9431 537.6294,853.8211 C536.7034,850.3081 537.1814,847.4061 540.2984,845.5181 C549.2744,840.0811 558.2814,834.6851 567.4284,829.5451 C571.0904,827.4861 574.9014,829.1561 575.8614,832.7271 C576.7874,836.1711 575.1534,838.5121 572.3074,840.2021 C566.2914,843.7771 560.2474,847.3061 554.2524,850.9151 C552.5824,851.9201 550.4694,852.8241 551.1254,855.4121 C552.0644,859.1171 552.8404,862.9511 556.3644,865.2991 C560.8004,868.2561 565.1464,871.3611 569.7054,874.1151 C574.7744,877.1771 579.7614,872.7271 584.8754,873.5221 C585.1114,873.5591 585.6764,872.8291 585.7434,872.4011 C586.5604,867.1731 590.9774,865.0641 594.4274,862.0121 C604.2254,853.3401 614.8504,845.8931 626.6434,840.2631 C635.1614,836.1971 642.7724,830.8851 649.8304,824.7481 C696.2164,784.4151 738.8624,740.2141 778.0894,693.1151 C811.7914,652.6501 833.9984,604.9191 853.2904,556.0491 C853.8294,554.6841 854.4524,553.2831 853.7524,550.8051 M873.8114,528.3441 C858.3714,587.1571 829.9704,639.7721 796.0654,689.6271 C781.8734,710.4951 763.4724,727.9191 746.3284,746.3151 C720.8784,773.6261 694.9684,800.4901 667.1924,825.4861 C655.2564,836.2271 642.7754,846.0941 628.0604,852.9131 C620.7914,856.2811 614.2804,861.0221 608.0134,866.0191 C606.0854,867.5581 603.9544,868.9781 602.8954,871.6531 C605.2794,875.4861 609.8274,877.3271 612.3704,880.9501 C618.3124,889.4131 626.2554,893.3931 636.3614,895.9041 C647.2144,898.6021 657.3844,904.2131 667.6744,908.9381 C672.4434,911.1281 677.2304,911.5601 682.2664,911.2601 C683.8014,911.1681 685.1314,910.7461 686.3914,909.7581 C696.0364,902.1911 714.1194,900.5641 723.8904,907.2561 C729.9714,911.4211 732.3724,918.3251 731.6864,925.6751 C731.4194,928.5241 732.0364,929.6481 734.5084,930.3471 C741.0904,932.2071 746.0024,936.2351 749.4484,942.0931 C751.1034,944.9091 753.6104,946.9241 756.2044,948.6761 C766.1934,955.4151 771.5634,974.2951 765.3674,985.1031 C763.9714,987.5381 763.2394,990.3471 762.1354,992.9551 C760.9334,995.8001 758.9774,997.8011 755.6554,997.3581 C752.1314,996.8891 750.6084,994.2671 750.1974,991.0821 C749.6214,986.6331 749.4074,982.1371 748.8854,977.6791 C748.5744,975.0161 747.7054,972.5341 745.9754,970.3511 C743.5284,967.2631 740.9154,965.7761 736.9854,967.9481 C734.4964,969.3231 731.6304,969.8711 728.7504,969.6281 C726.1524,969.4091 723.5734,968.9541 720.6124,968.5531 C720.8804,971.6771 722.9274,973.3241 724.7474,974.7531 C732.5824,980.8971 733.4584,989.6871 734.1354,998.5641 C734.3524,1001.4051 733.4534,1003.9511 730.5784,1005.1171 C727.7514,1006.2641 725.3074,1005.2271 723.3874,1003.0721 C719.7294,998.9681 716.1344,994.8051 712.5784,990.6111 C710.9494,988.6911 709.1994,987.3951 706.5344,988.3481 C700.5004,990.5051 694.7074,988.9351 688.9234,987.2031 C681.7434,985.0521 674.5434,982.9651 667.3854,980.7421 C664.0014,979.6931 661.8674,980.1911 660.4554,983.9491 C658.1584,990.0631 654.2464,995.3441 650.4984,1000.6501 C648.6904,1003.2111 646.3654,1005.2621 642.8984,1003.6251 C639.5284,1002.0351 638.5374,999.2671 639.5154,995.7181 C639.8244,994.5951 640.0374,993.4451 640.2994,992.3091 C641.7824,985.8611 641.7004,985.8281 635.4674,984.4681 C631.0314,983.5001 627.0904,981.2101 623.0514,979.2631 C611.9444,973.9081 600.8374,968.5421 589.8954,962.8611 C585.8434,960.7571 581.9614,960.0191 578.0444,962.2601 C565.3604,969.5141 551.4984,968.8951 537.6584,968.7251 C533.5254,968.6741 529.7664,967.7981 526.4274,965.2551 C522.8024,962.4951 519.5914,963.3221 516.8494,966.6651 C512.9124,971.4631 510.0314,976.9211 507.1634,982.3821 C505.6244,985.3111 503.8244,987.9671 499.9494,987.3521 C496.1364,986.7481 494.8504,983.6571 494.3794,980.4771 C492.0924,965.0611 497.1744,952.2421 508.7584,942.0391 C512.5614,938.6891 517.4924,937.7521 522.4114,938.3201 C531.8424,939.4101 540.9294,936.6351 550.2184,936.2861 C553.2534,936.1721 553.8184,934.4921 553.0154,931.8861 C549.6334,920.9021 546.7034,909.8241 537.4934,901.6791 C532.4044,897.1781 527.8984,891.9211 523.6444,886.5941 C517.0334,878.3151 508.8934,872.3161 499.2794,868.0271 C496.2134,866.6601 493.3704,866.1541 490.1324,867.0341 C480.4894,869.6541 470.7784,872.0341 461.1644,874.7541 C455.1694,876.4501 450.3634,873.8371 445.7584,870.8711 C442.7854,868.9551 442.6704,865.8201 444.6184,862.9301 C446.7304,859.7941 445.8074,858.1491 442.6854,856.2731 C435.3934,851.8921 428.2714,850.0991 419.5204,852.3471 C408.9214,855.0681 398.2484,857.8351 387.3034,859.2081 C382.1314,859.8561 377.6494,859.8201 374.9194,854.4591 C373.8834,852.4221 372.1414,851.8881 369.8554,852.3721 C365.6224,853.2681 361.2394,853.5901 357.1054,854.7931 C349.9244,856.8841 343.1214,856.0811 336.0444,854.0471 C321.4804,849.8591 306.7334,846.3141 292.1264,842.2691 C287.8494,841.0851 284.1344,841.5111 280.0874,843.2571 C226.6934,866.2911 173.2464,889.2041 119.8104,912.1411 C109.7234,916.4711 98.7784,917.0731 88.2024,919.2081 C64.6994,923.9531 41.0974,928.2091 17.5824,932.8941 C12.9924,933.8101 10.0394,932.6681 7.3834,928.8711 C-1.4626,916.2291 -3.2406,918.4841 6.9224,903.4771 C14.4054,892.4281 21.2124,880.9671 27.5114,869.2131 C29.3964,865.6951 31.8654,863.1411 35.3634,861.1801 C56.5834,849.2811 77.5834,836.9841 98.9584,825.3751 C106.3484,821.3621 111.2844,815.3261 116.1694,809.0511 C119.5014,804.7691 123.3004,801.2381 127.9114,798.3931 C187.3064,761.7271 242.3994,719.1151 296.9274,675.7481 C336.0714,644.6151 377.0444,615.9531 417.1144,586.0701 C464.4024,550.8031 511.4134,515.1601 558.9044,480.1681 C579.4274,465.0461 601.8474,452.7061 623.2934,438.9281 C628.7604,435.4151 634.0474,431.5531 639.7694,428.5181 C658.8534,418.3951 669.0954,401.1001 677.9784,382.5611 C679.6364,379.1021 678.7104,377.3591 675.2704,376.1971 C672.2804,375.1861 669.3284,373.9911 666.5004,372.5941 C664.3624,371.5381 662.6674,372.1991 660.8624,373.1861 C658.0844,374.7051 655.1824,375.4991 652.4334,373.3331 C649.6904,371.1701 650.0084,368.1801 650.5014,365.0811 C652.5604,352.1301 657.0204,340.2871 666.1504,330.5801 C668.0724,328.5371 668.4734,326.8471 666.4184,324.6001 C654.3874,311.4411 642.4404,298.2061 630.4434,285.0161 C626.4954,284.1921 625.9944,285.5031 625.4044,286.6621 C615.8784,305.3921 601.8544,320.1281 584.6264,331.8231 C561.8694,347.2701 537.1104,358.4741 509.7204,361.9421 C487.2014,364.7941 464.5104,363.7111 442.2134,358.7681 C422.9754,354.5021 421.1214,349.7411 423.4414,331.2961 C427.2714,300.8461 440.4084,274.3801 461.8474,252.2051 C463.3214,250.6821 465.2394,249.4561 465.7194,247.2081 C465.2374,245.6771 463.9464,245.7801 462.8304,245.6601 C438.1584,243.0041 423.5294,228.4601 416.1364,205.7421 C412.6394,194.9921 411.9044,183.8621 413.8064,172.6541 C414.4774,168.6961 413.6794,165.2051 411.7504,161.6531 C403.6124,146.6651 398.2564,130.9871 398.8754,113.5201 C399.7574,88.6841 417.1974,70.1631 442.0784,68.3511 C444.9964,63.5311 444.7974,59.1841 445.5424,55.0051 C448.9024,36.1691 460.5204,23.1491 475.8084,12.7711 C493.3284,0.8781 512.3924,-2.8059 532.9704,2.1311 C544.5174,4.9021 555.6654,5.6691 567.7594,3.5551 C599.0204,-1.9099 624.5104,14.5131 633.9324,44.9021 C635.8454,51.0701 638.4114,54.2891 644.9884,56.2081 C670.6424,63.6951 684.7814,88.8861 678.8474,114.9491 C678.4134,116.8531 677.4954,118.7181 678.0894,120.7721 C679.9214,121.8921 681.6884,121.1731 683.4274,120.7061 C703.4914,115.3271 724.0364,113.1251 744.6824,112.6341 C754.4054,112.4021 764.3454,112.8641 773.9084,115.5971 C783.0584,118.2131 785.5164,121.4721 785.3404,130.9991 C785.1164,143.0811 780.6114,154.0881 776.5944,165.2001 C771.4164,179.5211 764.6754,193.2741 756.4114,205.8741 C738.4144,233.3151 716.7284,257.0541 683.8284,267.0681 C669.1194,271.5461 654.0954,272.5191 638.8724,270.2941 C637.5874,270.1061 636.2724,269.5121 635.0374,270.5401 C634.6574,272.3231 636.0034,273.2831 636.9674,274.3491 C649.5914,288.3201 662.3034,302.2121 674.8414,316.2601 C677.5554,319.3001 679.9224,319.8121 683.4234,317.5811 C687.3484,315.0801 691.6164,313.1351 696.2394,312.1111 C698.2294,311.6691 699.8884,310.6891 701.0474,308.8371 C710.9654,292.9861 725.9944,284.6591 743.6924,280.8821 C775.5414,274.0861 804.6524,280.8761 830.4484,300.5121 C843.1204,310.1581 851.0554,323.9201 859.0204,337.4641 C869.6814,355.5951 873.4284,376.0571 878.7884,395.9541 C883.5604,413.6691 886.9624,431.7021 887.9944,450.0321 C888.6204,461.1841 886.4014,472.2441 884.9184,483.2921 C884.0344,489.8891 883.4364,496.5401 881.5094,502.9551 C880.6214,505.9111 881.5594,507.9771 884.0434,509.8121 C919.3764,535.9081 955.8894,560.0261 996.4754,577.3761 C998.4634,578.2271 1000.5294,578.9801 1002.3544,580.1081 C1004.9234,581.6971 1005.8004,584.1841 1004.7134,587.0431 C1003.6964,589.7201 1001.4594,590.9291 998.7224,590.4621 C996.4564,590.0751 994.2164,589.2791 992.0914,588.3691 C953.5684,571.8621 918.4794,549.5251 884.6794,525.0061 C882.7934,523.6381 880.8924,522.2861 878.9414,521.0141 C874.7594,522.7251 874.5104,525.6801 873.8114,528.3441 Z" id="Fill-1"></path>
            </g>
        </g>
    </g>
</svg>