<?xml version="1.0" encoding="UTF-8"?>
<svg width="1139px" height="1139px" viewBox="0 0 1139 1139" version="1.1" xmlns="http://www.w3.org/2000/svg" xmlns:xlink="http://www.w3.org/1999/xlink">
    <!-- Generator: Sketch 48.2 (47327) - http://www.bohemiancoding.com/sketch -->
    <title>icon-heavy-l</title>
    <desc>Created with Sketch.</desc>
    <defs></defs>
    <g id="Page-1" stroke="none" stroke-width="1" fill="none" fill-rule="evenodd">
        <g id="icon-heavy-l" fill="#000000">
            <path d="M877.366721,393.999183 C876.965721,398.260183 877.835721,402.363183 876.049721,406.520183 C880.158721,405.149183 882.956721,403.276183 882.906721,399.059183 C882.868721,395.789183 880.728721,394.550183 877.366721,393.999183 M787.822721,430.769183 C783.004721,424.425183 770.975721,422.521183 762.361721,426.406183 C770.343721,430.542183 778.713721,430.793183 787.822721,430.769183 M936.211721,591.622183 C937.993721,588.859183 939.880721,586.157183 941.539721,583.323183 C947.137721,573.760183 947.108721,573.737183 938.236721,567.302183 C937.922721,567.074183 937.420721,567.106183 936.786721,566.971183 C936.857721,575.280183 936.267721,583.336183 936.211721,591.622183 M852.816721,199.769183 C844.839721,204.866183 837.880721,209.312183 830.068721,214.302183 C835.593721,215.853183 839.909721,217.037183 844.206721,218.286183 C845.752721,218.735183 847.195721,219.069183 847.937721,217.139183 C849.945721,211.922183 851.700721,206.636183 852.816721,199.769183 M843.430721,189.324183 C843.316721,188.997183 843.202721,188.669183 843.088721,188.342183 C836.950721,188.016183 830.815721,187.603183 824.673721,187.416183 C822.742721,187.357183 820.223721,187.461183 820.375721,190.324183 C820.589721,194.359183 821.232721,198.371183 821.767721,203.064183 C829.451721,198.191183 836.441721,193.757183 843.430721,189.324183 M847.753721,430.402183 C832.594721,423.296183 817.997721,424.642183 802.281721,425.099183 C805.523721,428.257183 807.092721,431.671183 810.718721,431.973183 C822.646721,432.968183 834.547721,432.646183 847.753721,430.402183 M573.005721,117.191183 C567.525721,117.353183 562.113721,120.548183 557.810721,125.836183 C555.740721,128.382183 553.774721,131.499183 555.864721,134.447183 C558.169721,137.697183 562.003721,137.248183 565.451721,135.894183 C571.168721,133.649183 574.680721,128.939183 578.018721,124.151183 C579.058721,122.659183 581.272721,121.238183 579.930721,118.983183 C578.748721,116.996183 576.498721,117.263183 573.005721,117.191183 M249.963721,868.341183 L250.118721,867.544183 C237.846721,870.123183 225.583721,872.747183 213.292721,875.235183 C211.366721,875.626183 209.897721,876.412183 208.687721,877.882183 C204.521721,882.944183 200.341721,887.995183 196.165721,893.051183 C196.312721,893.256183 196.459721,893.462183 196.606721,893.667183 C214.392721,885.226183 232.177721,876.783183 249.963721,868.341183 M560.380721,388.181183 C549.147721,394.964183 538.577721,401.348183 526.961721,408.362183 C537.419721,410.755183 546.731721,411.835183 556.181721,411.842183 C557.842721,411.843183 558.487721,410.936183 558.611721,409.345183 C559.141721,402.587183 559.734721,395.834183 560.380721,388.181183 M787.741721,224.722183 C791.871721,222.105183 795.358721,219.169183 799.374721,217.507183 C807.037721,214.335183 808.375721,208.818183 807.735721,201.286183 C806.648721,188.501183 805.753721,187.596183 793.085721,190.233183 C791.053721,190.656183 790.295721,191.440183 790.127721,193.402183 C789.561721,200.002183 788.638721,206.581183 788.336721,213.190183 C788.173721,216.753183 786.722721,220.268183 787.741721,224.722183 M517.084721,398.101183 C530.250721,390.146183 542.213721,382.920183 555.113721,375.127183 C545.284721,370.097183 536.433721,365.567183 527.182721,360.833183 C521.919721,372.874183 518.367721,384.432183 517.084721,398.101183 M592.182721,369.013183 C587.876721,371.589183 584.331721,374.123183 580.447721,375.925183 C576.065721,377.959183 574.530721,381.278183 574.290721,385.745183 C574.077721,389.724183 573.587721,393.687183 573.297721,397.663183 C572.953721,402.383183 572.693721,407.108183 572.410721,411.621183 C578.562721,411.621183 584.194721,411.703183 589.823721,411.587183 C592.655721,411.529183 593.725721,409.924183 593.679721,407.002183 C593.530721,397.517183 593.629721,388.027183 593.621721,378.540183 C593.618721,375.570183 593.381721,372.633183 592.182721,369.013183 M693.274721,301.327183 C694.862721,304.053183 696.416721,306.228183 697.467721,308.624183 C699.679721,313.671183 703.561721,315.851183 708.814721,317.064183 C716.447721,318.826183 724.143721,319.983183 731.900721,320.585183 C735.476721,320.863183 739.375721,321.731183 743.473721,319.296183 C732.733721,309.946183 722.348721,300.946183 712.026721,291.874183 C710.567721,290.591183 709.415721,290.929183 708.043721,291.821183 C703.324721,294.887183 698.580721,297.916183 693.274721,301.327183 M841.859721,232.050183 C832.703721,229.460183 824.140721,227.023183 815.562721,224.644183 C814.985721,224.484183 814.162721,224.558183 813.665721,224.866183 C806.582721,229.252183 799.534721,233.697183 791.626721,238.664183 C804.175721,244.556183 815.555721,249.880183 826.914721,255.252183 C828.918721,256.200183 830.022721,255.307183 830.951721,253.678183 C834.809721,246.916183 838.553721,240.099183 841.859721,232.050183 M685.972721,289.426183 C691.552721,285.895183 696.375721,282.678183 701.371721,279.754183 C703.753721,278.360183 704.304721,276.738183 704.055721,274.066183 C703.378721,266.795183 703.412721,259.448183 702.510721,252.212183 C701.725721,245.918183 702.296721,239.443183 700.490721,232.219183 C689.869721,245.094183 682.751721,258.590183 678.257721,273.508183 C677.865721,274.808183 677.971721,276.159183 678.699721,277.371183 C680.993721,281.191183 683.302721,285.003183 685.972721,289.426183 M736.756721,205.933183 C728.876721,209.510183 722.328721,212.961183 716.301721,217.407183 C714.444721,218.777183 714.031721,220.484183 714.190721,222.620183 C715.054721,234.211183 715.716721,245.819183 716.782721,257.391183 C717.119721,261.051183 716.538721,264.901183 718.155721,268.874183 C721.001721,267.115183 723.437721,265.379183 726.073721,264.033183 C730.023721,262.016183 731.641721,259.165183 731.847721,254.562183 C732.202721,246.623183 733.536721,238.731183 734.362721,230.809183 C735.184721,222.923183 735.887721,215.024183 736.756721,205.933183 M621.477721,334.973183 C609.113721,323.801183 597.515721,313.353183 585.970721,302.845183 C584.763721,301.747183 583.641721,301.795183 582.339721,302.334183 C576.046721,304.934183 570.187721,308.245183 564.389721,313.007183 C576.925721,323.784183 589.119721,334.265183 601.310721,344.751183 C602.454721,345.735183 603.573721,345.878183 604.927721,345.040183 C610.125721,341.826183 615.366721,338.682183 621.477721,334.973183 M746.158721,251.157183 C754.502721,245.873183 761.590721,241.264183 768.810721,236.874183 C771.486721,235.247183 772.695721,233.313183 772.829721,230.099183 C773.050721,224.810183 774.183721,219.555183 774.345721,214.269183 C774.552721,207.529183 776.386721,200.854183 775.400721,193.653183 C767.749721,194.888183 760.686721,197.163183 753.604721,199.379183 C751.647721,199.992183 751.307721,201.427183 751.114721,203.201183 C750.235721,211.272183 749.190721,219.326183 748.345721,227.401183 C747.560721,234.918183 746.952721,242.454183 746.158721,251.157183 M533.827721,347.760183 C534.740721,348.621183 535.141721,349.204183 535.696721,349.492183 C546.154721,354.922183 556.633721,360.311183 567.097721,365.728183 C568.372721,366.389183 569.484721,366.480183 570.797721,365.672183 C577.119721,361.781183 583.493721,357.976183 590.415721,353.799183 C577.941721,343.023183 565.937721,332.653183 553.744721,322.120183 C545.550721,329.692183 539.396721,338.231183 533.827721,347.760183 M607.244721,405.874183 C609.308721,407.229183 610.667721,406.414183 612.074721,405.970183 C619.202721,403.721183 626.030721,400.705183 632.965721,397.955183 C637.518721,396.149183 638.497721,393.596183 637.040721,389.134183 C635.865721,385.533183 635.424721,381.694183 634.614721,377.970183 C632.444721,367.996183 630.250721,358.026183 627.917721,347.373183 C621.909721,350.993183 616.622721,354.379183 611.137721,357.405183 C608.167721,359.043183 606.929721,361.023183 607.026721,364.498183 C607.295721,374.130183 607.203721,383.771183 607.241721,393.410183 C607.258721,397.691183 607.244721,401.973183 607.244721,405.874183 M614.516721,77.7691825 C612.738721,77.0291825 612.152721,76.6831825 611.520721,76.5381825 C587.365721,71.0191825 567.825721,79.5301825 551.197721,96.5761825 C545.400721,102.519183 541.401721,109.609183 539.700721,117.777183 C538.921721,121.523183 538.421721,125.461183 540.813721,129.512183 C548.829721,107.891183 563.979721,100.287183 587.173721,105.768183 C589.653721,103.005183 588.713721,98.3061825 592.037721,96.2101825 C600.088721,91.1341825 605.257721,82.7751825 614.516721,77.7691825 M543.103721,149.186183 C540.349721,152.503183 538.802721,155.956183 537.885721,159.690183 C536.593721,164.957183 540.069721,169.812183 545.296721,170.893183 C550.639721,171.999183 555.877721,171.567183 561.138721,170.737183 C591.854721,165.892183 608.764721,143.689183 600.933721,109.770183 C598.558721,115.337183 595.865721,120.145183 594.457721,125.304183 C592.372721,132.942183 588.237721,138.864183 581.879721,143.237183 C569.939721,151.447183 557.239721,155.592183 543.103721,149.186183 M501.433721,211.895183 C505.552721,205.532183 509.432721,200.346183 514.689721,196.444183 C516.915721,194.792183 517.606721,192.801183 517.799721,190.103183 C518.389721,181.822183 519.567721,173.623183 521.476721,165.507183 C523.142721,158.421183 526.013721,151.772183 528.637721,145.091183 C525.154721,142.985183 521.898721,143.018183 518.573721,143.798183 C505.645721,146.832183 497.554721,155.083183 494.361721,167.682183 C490.493721,182.940183 494.546721,197.191183 501.433721,211.895183 M752.679721,263.461183 C770.421721,272.576183 787.207721,281.199183 804.113721,289.884183 C810.517721,282.929183 816.681721,276.284183 821.546721,268.007183 C807.402721,261.371183 793.731721,254.947183 780.046721,248.555183 C778.800721,247.973183 777.406721,247.853183 776.190721,248.615183 C768.624721,253.359183 761.085721,258.146183 752.679721,263.461183 M792.361721,300.304183 C791.845721,299.616183 791.712721,299.255183 791.459721,299.124183 C774.751721,290.501183 758.037721,281.892183 741.310721,273.304183 C740.312721,272.792183 739.294721,272.054183 738.054721,272.852183 C733.109721,276.034183 728.151721,279.196183 722.654721,282.713183 C735.685721,294.082183 747.984721,304.773183 760.219721,315.537183 C761.641721,316.789183 762.846721,316.397183 764.315721,315.898183 C774.506721,312.434183 783.721721,307.251183 792.361721,300.304183 M671.740721,304.657183 C668.404721,300.065183 665.254721,295.640183 661.995721,291.296183 C660.929721,289.874183 659.273721,290.300183 657.809721,290.563183 C642.534721,293.302183 627.156721,294.701183 611.624721,294.301183 C607.850721,294.203183 604.184721,294.760183 600.315721,297.017183 C611.059721,306.793183 621.403721,316.174183 631.701721,325.605183 C633.586721,327.331183 635.284721,326.758183 637.119721,325.644183 C648.476721,318.746183 659.844721,311.865183 671.740721,304.657183 M721.646721,197.530183 C727.967721,194.754183 733.556721,192.242183 739.199721,189.857183 C740.682721,189.230183 741.642721,188.230183 742.477721,186.951183 C756.719721,165.139183 746.421721,137.146183 721.460721,130.024183 C716.205721,128.525183 710.868721,128.376183 704.536721,130.022183 C722.151721,149.819183 726.227721,172.288183 721.646721,197.530183 M617.209721,92.5531825 C619.715721,93.0731825 620.993721,93.4721825 622.296721,93.5881825 C647.273721,95.8191825 670.316721,103.471183 690.912721,118.002183 C692.020721,118.783183 693.062721,119.511183 694.552721,118.915183 C697.723721,117.646183 700.928721,116.462183 704.350721,115.155183 C699.430721,96.8881825 689.769721,83.1831825 670.935721,78.7001825 C651.325721,74.0321825 634.047721,80.4601825 617.209721,92.5531825 M750.633721,416.007183 C758.511721,410.248183 766.961721,410.491183 775.440721,410.711183 C796.908721,411.268183 818.418721,409.577183 840.161721,411.826183 C834.978721,404.418183 830.494721,396.651183 824.677721,389.795183 C821.808721,386.414183 818.055721,384.853183 813.769721,384.441183 C793.440721,382.485183 775.196721,387.476183 759.298721,400.603183 C754.770721,404.343183 751.202721,408.469183 750.633721,416.007183 M674.611721,954.405183 C678.389721,959.586183 682.860721,963.022183 687.254721,966.520183 C698.115721,975.166183 707.726721,985.050183 716.615721,995.686183 C718.704721,998.186183 721.273721,1001.51318 724.903721,999.534183 C736.545721,993.191183 748.518721,993.142183 761.208721,995.432183 C768.519721,996.751183 774.696721,998.677183 778.658721,1005.30518 C779.416721,1006.57318 780.357721,1008.33418 782.064721,1007.59818 C787.860721,1005.09918 791.850721,1008.56418 796.234721,1011.30018 C800.626721,1014.03918 804.837721,1017.24218 810.650721,1018.99918 C809.534721,1013.47318 813.118721,1010.30118 814.777721,1006.27018 C813.188721,1004.85918 811.480721,1004.58418 809.660721,1004.23018 C801.508721,1002.64918 793.371721,1000.97618 785.270721,999.147183 C781.876721,998.382183 779.720721,996.182183 779.661721,992.461183 C779.603721,988.747183 781.625721,986.752183 785.050721,985.644183 C787.009721,985.011183 789.408721,985.254183 791.116721,982.934183 C789.647721,981.222183 789.614721,978.062183 786.141721,978.378183 C782.776721,978.684183 778.940721,977.890183 776.875721,981.748183 C775.406721,984.491183 773.107721,986.032183 770.070721,986.116183 C760.283721,986.389183 750.825721,986.468183 741.411721,981.799183 C729.280721,975.782183 717.109721,969.156183 703.283721,967.560183 C697.998721,966.949183 694.287721,964.621183 691.544721,960.222183 C690.497721,958.542183 689.042721,957.117183 687.781721,955.571183 C686.776721,954.340183 685.727721,953.624183 683.924721,954.092183 C681.081721,954.830183 678.123721,954.876183 674.611721,954.405183 M518.271721,212.922183 C517.434721,213.596183 516.830721,213.896183 516.498721,214.382183 C515.375721,216.027183 514.227721,217.675183 513.303721,219.434183 C506.495721,232.389183 505.419721,246.155183 508.623721,260.141183 C514.674721,286.549183 534.869721,299.290183 561.183721,293.607183 C566.211721,292.521183 571.324721,291.338183 576.292721,288.056183 C540.602721,275.321183 523.218721,249.080183 518.271721,212.922183 M679.927721,315.809183 C667.967721,323.078183 656.544721,330.205183 644.913721,336.976183 C641.599721,338.905183 640.583721,341.010183 641.401721,344.625183 C644.407721,357.905183 647.270721,371.217183 650.168721,384.520183 C650.411721,385.640183 650.324721,386.889183 652.160721,387.567183 C670.522721,376.218183 685.934721,361.753183 695.790721,341.872183 C696.753721,339.929183 696.487721,338.514183 695.271721,336.868183 C690.139721,329.919183 685.090721,322.910183 679.927721,315.809183 M615.271721,107.550183 C618.433721,128.003183 617.476721,147.266183 603.434721,163.493183 C589.580721,179.501183 570.879721,184.673183 549.727721,185.707183 C552.387721,189.217183 554.598721,191.717183 556.341721,194.509183 C561.530721,202.823183 568.277721,206.998183 578.363721,203.910183 C581.024721,203.095183 583.962721,203.242183 586.721721,202.690183 C605.991721,198.836183 622.435721,190.506183 631.356721,171.956183 C640.797721,152.325183 638.446721,131.832183 634.277721,111.399183 C633.962721,109.853183 632.934721,108.686183 631.243721,108.463183 C626.184721,107.798183 621.148721,106.627183 615.271721,107.550183 M742.127721,1008.28218 C736.777721,1008.65318 732.860721,1011.67618 728.553721,1013.60618 C726.256721,1014.63818 723.961721,1016.14818 721.461721,1014.93918 C710.540721,1009.65718 698.742721,1005.54618 689.014721,998.567183 C666.625721,982.507183 647.395721,962.794183 629.545721,941.805183 C626.703721,938.464183 619.164721,937.899183 615.532721,941.280183 C621.247721,947.504183 626.897721,953.805183 632.717721,959.943183 C636.572721,964.011183 639.408721,968.679183 641.262721,973.883183 C643.829721,981.084183 645.980721,988.433183 648.533721,995.638183 C649.682721,998.881183 648.985721,1001.46618 646.907721,1003.94118 C643.077721,1008.50218 639.159721,1012.77018 632.251721,1011.39818 C630.017721,1010.95518 628.857721,1012.19218 628.862721,1014.53218 C628.867721,1016.75618 629.695721,1017.93618 632.110721,1017.87518 C637.599721,1017.73318 643.031721,1017.81718 648.168721,1015.11818 C651.673721,1013.27518 655.523721,1012.04018 659.303721,1010.78318 C664.571721,1009.03018 669.491721,1009.49318 674.631721,1012.19918 C686.696721,1018.55418 699.036721,1024.38818 711.310721,1030.34018 C712.828721,1031.07718 714.288721,1032.56418 716.484721,1031.64918 C716.066721,1023.79418 722.723721,1023.09618 727.717721,1021.10818 C731.833721,1019.47118 735.087721,1021.62518 737.353721,1025.28618 C738.255721,1026.74118 739.543721,1027.56118 741.356721,1027.92218 C751.969721,1030.03318 762.292721,1033.24318 772.529721,1036.68218 C776.769721,1038.10518 779.844721,1037.93118 781.506721,1032.79818 C778.151721,1031.51018 774.661721,1030.43418 771.408721,1028.86718 C764.585721,1025.58218 755.796721,1025.81318 751.495721,1017.90818 C751.319721,1017.58318 750.619721,1017.42718 750.149721,1017.39518 C744.692721,1017.03018 742.289721,1013.77618 742.127721,1008.28218 M674.608721,245.836183 C673.221721,246.258183 672.576721,246.375183 672.001721,246.642183 C646.030721,258.675183 620.404721,257.138183 595.172721,244.481183 C570.094721,231.901183 551.192721,212.562183 535.709721,189.550183 C534.776721,188.163183 534.261721,186.347183 532.431721,185.493183 C531.302721,189.894183 532.095721,194.072183 531.781721,198.103183 C530.910721,209.299183 532.997721,219.944183 536.321721,230.397183 C548.304721,268.084183 583.354721,280.897183 610.554721,279.340183 C627.383721,278.376183 644.119721,274.881183 661.109721,274.732183 C663.377721,274.713183 663.902721,273.185183 664.342721,271.605183 C666.757721,262.927183 670.272721,254.687183 674.608721,245.836183 M784.016721,558.054183 C783.226721,558.611183 782.850721,558.740183 782.714721,558.996183 C782.092721,560.167183 781.527721,561.370183 780.959721,562.569183 C773.033721,579.316183 762.495721,594.190183 748.667721,606.557183 C745.753721,609.162183 744.057721,611.873183 743.352721,615.639183 C735.910721,655.387183 719.731721,691.331183 695.949721,723.936183 C693.265721,727.615183 690.497721,731.233183 687.768721,734.881183 C724.983721,715.656183 758.448721,692.463183 773.481721,651.176183 C784.379721,621.246183 792.455721,590.669183 784.016721,558.054183 M409.375721,832.413183 C384.082721,838.147183 359.699721,843.682183 335.308721,849.186183 C334.128721,849.453183 333.193721,849.852183 332.385721,850.844183 C324.155721,860.950183 314.393721,869.564183 305.014721,878.531183 C278.244721,904.126183 249.136721,926.935183 219.831721,949.500183 C218.795721,950.298183 217.307721,950.808183 217.069721,952.603183 C217.804721,952.548183 218.161721,952.607183 218.441721,952.487183 C265.480721,932.260183 312.512721,912.018183 359.551721,891.790183 C361.094721,891.126183 362.519721,890.410183 363.585721,889.010183 C378.095721,869.947183 392.908721,851.127183 409.375721,832.413183 M725.819721,624.314183 C714.941721,630.868183 703.856721,636.497183 692.150721,640.817183 C690.531721,641.414183 690.096721,642.861183 689.319721,644.103183 C668.014721,678.186183 644.147721,710.356183 617.499721,740.459183 C607.819721,751.395183 597.976721,762.175183 587.567721,772.609183 C598.514721,769.673183 609.173721,766.021183 620.040721,763.158183 C638.117721,758.395183 654.318721,750.567183 667.195721,736.657183 C696.152721,705.376183 715.419721,668.827183 726.434721,627.787183 C726.689721,626.836183 726.885721,625.827183 725.819721,624.314183 M308.087721,855.739183 C306.064721,855.025183 304.740721,855.811183 303.469721,856.528183 C287.379721,865.606183 270.720721,873.568183 254.135721,881.671183 C209.735721,903.361183 164.857721,923.988183 118.891721,942.177183 C117.703721,942.646183 116.868721,943.256183 116.305721,944.310183 C110.412721,955.340183 103.451721,965.712183 96.6367208,976.173183 C95.8327208,977.406183 95.5167208,978.545183 96.5677208,979.798183 C97.4727208,980.877183 98.3707208,981.664183 99.9737208,981.134183 C101.223721,980.721183 102.586721,980.663183 103.880721,980.366183 C120.054721,976.652183 136.202721,972.825183 152.401721,969.226183 C171.327721,965.020183 187.834721,955.758183 203.222721,944.502183 C231.328721,923.945183 258.343721,901.994183 284.199721,878.663183 C292.304721,871.349183 300.560721,864.132183 308.087721,855.739183 M466.454721,804.729183 C484.465721,800.179183 502.344721,794.991183 520.517721,791.226183 C547.363721,785.662183 569.003721,771.865183 587.615721,752.297183 C617.316721,721.071183 644.162721,687.606183 667.785721,651.562183 C668.359721,650.687183 669.542721,649.870183 668.481721,648.381183 C667.913721,648.381183 667.235721,648.261183 666.616721,648.399183 C654.911721,651.020183 643.086721,652.782183 631.099721,653.335183 C628.994721,653.433183 627.809721,654.752183 626.558721,656.070183 C608.319721,675.284183 589.863721,694.276183 570.636721,712.518183 C551.903721,730.289183 533.209721,748.097183 513.889721,765.237183 C498.573721,778.825183 482.722721,791.742183 466.454721,804.729183 M579.858721,217.809183 C584.000721,221.813183 587.915721,224.321183 591.819721,226.791183 C611.155721,239.023183 631.845721,244.812183 654.527721,238.461183 C675.922721,232.471183 691.630721,218.232183 705.526721,201.679183 C706.343721,200.706183 706.837721,199.353183 707.160721,198.094183 C710.143721,186.487183 710.762721,174.859183 707.688721,163.124183 C700.527721,135.795183 670.460721,118.636183 650.231721,113.600183 C650.110721,113.570183 649.942721,113.730183 649.781721,113.800183 C648.962721,114.827183 649.147721,116.045183 649.371721,117.146183 C651.442721,127.312183 651.802721,137.587183 651.223721,147.895183 C649.781721,173.575183 639.152721,193.877183 616.239721,206.811183 C605.262721,213.006183 593.237721,215.986183 579.858721,217.809183 M950.011721,558.831183 C953.059721,548.498183 953.884721,538.705183 955.410721,529.083183 C956.412721,522.762183 957.065721,516.257183 956.421721,509.689183 C954.795721,493.102183 951.878721,476.747183 947.555721,460.690183 C942.558721,442.124183 939.175721,422.989183 929.262721,406.040183 C922.350721,394.224183 915.550721,382.139183 904.779721,373.477183 C887.052721,359.219183 866.512721,352.238183 843.623721,353.435183 C829.703721,354.162183 816.138721,356.597183 804.722721,365.582183 C803.774721,366.328183 802.214721,366.687183 802.433721,368.575183 C825.762721,367.935183 841.075721,379.560183 850.453721,401.290183 C851.648721,394.096183 854.111721,389.012183 858.900721,385.122183 C867.638721,378.024183 881.393721,377.628183 889.921721,384.663183 C895.926721,389.618183 898.390721,396.051183 896.365721,403.817183 C893.903721,413.262183 887.187721,418.125183 878.166721,420.282183 C872.183721,421.711183 866.397721,420.304183 860.549721,418.074183 C865.754721,436.335183 855.607721,445.009183 840.747721,445.402183 C835.337721,445.545183 829.939721,446.196183 823.791721,446.673183 C864.158721,486.332183 905.351721,523.984183 950.011721,558.831183 M542.042721,632.164183 C544.024721,632.832183 544.791721,633.201183 545.599721,633.348183 C579.140721,639.428183 612.806721,642.561183 646.841721,637.891183 C680.787721,633.232183 711.447721,620.997183 737.318721,598.162183 C755.024721,582.533183 768.029721,563.728183 774.011721,540.499183 C774.693721,537.852183 774.073721,536.105183 772.549721,534.146183 C760.281721,518.383183 743.782721,514.825183 725.156721,517.911183 C709.646721,520.480183 695.789721,527.355183 682.399721,535.256183 C643.903721,557.968183 607.768721,584.168183 571.615721,610.336183 C561.943721,617.336183 552.398721,624.513183 542.042721,632.164183 M925.118721,557.504183 C924.230721,555.655183 922.623721,554.690183 921.220721,553.554183 C901.159721,537.286183 881.844721,520.163183 862.725721,502.804183 C843.232721,485.104183 824.563721,466.549183 805.621721,448.277183 C804.027721,446.740183 802.379721,445.459183 800.020721,445.360183 C792.539721,445.044183 785.051721,444.802183 777.585721,444.254183 C774.540721,444.030183 773.006721,445.227183 771.913721,447.868183 C766.658721,460.574183 758.916721,471.816183 751.148721,483.053183 C749.027721,486.122183 746.586721,488.705183 743.476721,490.778183 C737.430721,494.808183 731.489721,498.996183 724.318721,503.935183 C727.272721,503.633183 728.740721,503.534183 730.192721,503.328183 C752.409721,500.172183 777.227721,512.474183 788.169721,532.051183 C799.265721,551.905183 802.510721,573.361183 800.906721,595.718183 C800.427721,602.395183 799.031721,608.673183 801.928721,615.528183 C804.933721,622.643183 806.453721,624.848183 814.303721,624.867183 C822.465721,624.889183 828.195721,619.777183 834.309721,615.567183 C840.082721,611.592183 845.803721,607.571183 852.518721,605.343183 C858.390721,603.395183 862.890721,607.252183 862.099721,613.358183 C861.997721,614.145183 860.651721,615.038183 862.104721,615.849183 C865.182721,614.543183 866.569721,611.991183 867.531721,609.055183 C869.180721,604.020183 872.104721,599.799183 876.167721,596.445183 C881.302721,592.207183 886.689721,589.126183 892.952721,594.584183 C896.538721,590.324183 899.146721,585.936183 901.017721,581.071183 C904.750721,571.363183 906.572721,570.521183 916.122721,573.951183 C919.962721,568.936183 921.835721,562.812183 925.118721,557.504183 M244.510721,854.033183 C244.678721,854.238183 244.846721,854.443183 245.015721,854.648183 C245.803721,854.411183 246.578721,854.110183 247.381721,853.944183 C296.492721,843.781183 345.450721,832.910183 394.307721,821.603183 C406.039721,818.887183 418.215721,817.580183 428.887721,810.970183 C439.787721,804.218183 450.740721,797.566183 461.055721,789.943183 C509.047721,754.481183 550.805721,712.111183 593.241721,670.499183 C598.293721,665.546183 602.996721,660.236183 608.212721,654.719183 C606.962721,654.361183 606.368721,654.061183 605.764721,654.037183 C580.464721,653.027183 555.452721,649.762183 530.715721,644.388183 C527.484721,643.686183 525.021721,644.820183 522.484721,646.731183 C477.408721,680.694183 432.891721,715.376183 388.490721,750.211183 C369.116721,765.410183 350.922721,782.229183 330.142721,795.499183 C304.450721,811.904183 280.874721,831.306183 255.022721,847.436183 C251.512721,849.626183 248.013721,851.834183 244.510721,854.033183 M618.452721,921.042183 C618.452721,919.092183 618.625721,918.103183 618.425721,917.195183 C616.788721,909.792183 617.157721,908.855183 623.533721,905.103183 C631.280721,900.545183 639.004721,895.944183 646.796721,891.462183 C651.647721,888.671183 655.555721,889.308183 657.741721,893.011183 C659.831721,896.555183 658.361721,900.558183 653.786721,903.323183 C647.946721,906.854183 642.042721,910.281183 636.160721,913.743183 C634.396721,914.781183 632.531721,915.768183 633.475721,918.343183 C634.781721,921.902183 635.714721,925.567183 639.570721,927.640183 C643.221721,929.603183 646.799721,931.860183 649.973721,934.510183 C655.068721,938.763183 660.309721,932.942183 665.334721,935.133183 C665.502721,935.206183 666.298721,934.516183 666.318721,934.154183 C666.676721,927.745183 672.434721,925.852183 676.226721,922.410183 C684.900721,914.540183 694.396721,907.686183 705.015721,902.763183 C719.164721,896.202183 730.756721,886.285183 742.104721,875.976183 C765.921721,854.341183 788.353721,831.308183 810.442721,807.936183 C827.601721,789.778183 845.470721,772.173183 860.779721,752.439183 C888.195721,717.099183 907.952721,677.244183 926.242721,636.653183 C929.351721,629.751183 932.328721,622.765183 934.573721,614.549183 C931.396721,617.032183 928.914721,618.941183 926.467721,620.894183 C923.346721,623.383183 919.934721,624.636183 916.444721,622.015183 C912.919721,619.367183 913.324721,615.825183 914.917721,612.115183 C917.590721,605.889183 919.640721,599.462183 920.821721,591.949183 C914.562721,597.661183 910.405721,604.866183 901.876721,606.086183 C901.477721,606.144183 901.131721,606.726183 900.804721,607.102183 C887.010721,622.994183 866.771721,629.061183 849.944721,640.335183 C846.975721,642.324183 843.266721,643.286183 839.806721,644.448183 C831.682721,647.176183 828.143721,644.681183 828.007721,636.064183 C816.245721,640.032183 804.883721,640.252183 794.354721,631.928183 C793.847721,633.635183 793.430721,634.882183 793.107721,636.153183 C783.408721,674.286183 761.911721,704.078183 729.660721,726.396183 C701.691721,745.751183 671.636721,760.784183 639.304721,771.395183 C576.389721,792.043183 512.182721,807.905183 447.814721,823.129183 C438.451721,825.343183 430.934721,829.260183 424.580721,836.382183 C415.261721,846.828183 406.050721,857.352183 397.335721,868.305183 C391.144721,876.086183 385.020721,883.920183 378.524721,892.163183 C380.434721,892.816183 381.624721,893.306183 382.857721,893.634183 C395.544721,897.007183 408.297721,900.150183 420.902721,903.803183 C426.374721,905.388183 431.515721,905.416183 436.974721,904.042183 C442.604721,902.624183 448.400721,901.870183 454.098721,900.706183 C458.923721,899.721183 462.687721,900.845183 464.789721,905.621183 C465.933721,908.222183 467.678721,908.628183 470.407721,908.023183 C482.883721,905.260183 495.419721,902.766183 507.915721,900.091183 C511.979721,899.221183 515.708721,899.454183 519.455721,901.573183 C524.955721,904.684183 530.595721,907.570183 536.309721,910.271183 C541.511721,912.731183 545.527721,915.684183 543.526721,922.134183 C545.241721,923.066183 546.461721,922.440183 547.738721,922.101183 C555.126721,920.137183 562.484721,918.036183 569.932721,916.328183 C579.244721,914.191183 588.421721,913.405183 596.202721,920.838183 C597.616721,922.189183 599.553721,922.990183 601.232721,924.069183 C602.768721,925.057183 604.399721,924.776183 605.253721,923.463183 C608.512721,918.444183 612.760721,918.011183 618.452721,921.042183 M759.541721,440.859183 C755.341721,438.322183 750.543721,437.722183 746.631721,435.094183 C744.894721,433.927183 743.566721,435.645183 742.175721,436.410183 C735.610721,440.019183 730.169721,436.965183 730.716721,429.513183 C731.663721,416.596183 736.190721,404.916183 744.326721,394.745183 C745.664721,393.071183 747.210721,391.564183 749.009721,389.599183 C735.821721,375.107183 722.792721,360.790183 709.309721,345.974183 C704.385721,355.525183 699.158721,363.966183 692.594721,371.529183 C675.254721,391.510183 653.272721,404.476183 629.160721,414.588183 C604.117721,425.092183 578.230721,427.928183 551.411721,425.579183 C539.954721,424.575183 528.521721,423.661183 517.499721,420.273183 C504.803721,416.372183 502.685721,412.946183 503.368721,399.306183 C504.642721,373.876183 514.214721,351.186183 528.497721,330.348183 C533.578721,322.935183 539.544721,316.266183 546.102721,309.905183 C543.429721,307.444183 540.385721,308.512183 537.746721,307.917183 C515.472721,302.895183 499.109721,285.245183 494.704721,261.235183 C492.979721,251.836183 492.548721,242.406183 494.434721,232.986183 C495.043721,229.944183 493.993721,227.499183 492.578721,224.967183 C485.023721,211.447183 479.771721,197.158183 479.063721,181.537183 C477.861721,155.062183 493.867721,134.559183 515.845721,130.273183 C516.499721,130.146183 517.143721,129.957183 517.801721,129.867183 C525.594721,128.812183 525.514721,128.815183 525.646721,121.095183 C525.842721,109.581183 530.530721,99.6431825 537.729721,91.1101825 C553.216721,72.7571825 572.526721,61.3091825 597.173721,60.9571825 C604.821721,60.8481825 612.412721,62.4041825 619.830721,64.2681825 C628.269721,66.3881825 636.289721,66.8531825 645.179721,65.0851825 C680.188721,58.1221825 707.327721,75.2931825 717.122721,109.733183 C718.273721,113.779183 719.994721,115.520183 724.093721,116.554183 C752.125721,123.625183 767.808721,150.230183 760.862721,178.431183 C760.550721,179.699183 759.835721,180.895183 760.420721,182.474183 C769.128721,180.738183 777.799721,178.705183 786.572721,177.319183 C807.998721,173.933183 829.498721,171.945183 851.115721,175.728183 C852.750721,176.014183 854.381721,176.373183 855.972721,176.842183 C865.995721,179.793183 869.330721,185.239183 867.777721,195.600183 C864.366721,218.365183 854.943721,238.874183 843.984721,258.761183 C831.807721,280.856183 816.534721,300.442183 795.718721,315.116183 C774.039721,330.397183 749.973721,336.831183 723.484721,333.548183 C721.743721,333.332183 719.933721,332.879183 717.911721,333.877183 C720.542721,338.511183 724.497721,341.892183 727.865721,345.686183 C737.705721,356.775183 747.889721,367.559183 757.778721,378.607183 C759.674721,380.725183 761.064721,380.652183 763.266721,379.332183 C767.837721,376.592183 772.591721,374.174183 777.878721,373.071183 C779.410721,372.752183 780.595721,372.123183 781.463721,370.692183 C791.034721,354.891183 805.713721,346.331183 823.175721,342.353183 C853.279721,335.496183 881.381721,340.933183 907.139721,357.778183 C921.466721,367.147183 930.326721,381.365183 939.250721,395.511183 C950.129721,412.755183 954.378721,432.315183 959.471721,451.576183 C964.874721,472.006183 969.878721,492.601183 970.122721,513.856183 C970.320721,531.026183 967.349721,547.966183 963.858721,564.737183 C963.173721,568.029183 963.997721,569.663183 966.361721,571.399183 C1002.67672,598.059183 1040.10372,622.831183 1082.00572,640.086183 C1086.87672,642.093183 1088.72572,645.810183 1087.08672,649.864183 C1085.54872,653.666183 1081.54172,654.837183 1076.49072,652.764183 C1045.07272,639.871183 1016.00972,622.708183 987.976721,603.714183 C978.227721,597.108183 968.680721,590.207183 958.422721,583.006183 C956.304721,590.004183 954.335721,596.455183 952.399721,602.915183 C934.857721,661.470183 906.321721,714.478183 869.796721,763.126183 C854.918721,782.940183 836.855721,800.228183 819.769721,818.233183 C795.449721,843.858183 770.901721,869.254183 744.283721,892.544183 C734.739721,900.895183 724.812721,908.620183 713.190721,914.075183 C702.773721,918.964183 693.357721,925.515183 684.578721,933.505183 C691.522721,939.277183 697.795721,945.199183 702.959721,952.184183 C703.821721,953.350183 705.008721,953.838183 706.367721,954.026183 C721.319721,956.101183 734.308721,963.516183 747.839721,969.403183 C752.659721,971.501183 757.313721,973.107183 762.688721,972.257183 C764.926721,971.902183 766.850721,971.583183 768.356721,969.728183 C770.459721,967.139183 773.332721,966.114183 776.599721,965.574183 C785.676721,964.073183 794.579721,963.476183 803.444721,967.014183 C809.077721,969.262183 815.297721,980.341183 814.276721,987.444183 C814.138721,988.398183 813.888721,989.335183 813.614721,990.645183 C822.296721,992.672183 828.592721,997.654183 832.916721,1005.34818 C833.919721,1007.13218 836.035721,1008.30618 837.683721,1009.70918 C850.036721,1020.22218 853.218721,1032.85418 847.316721,1048.11318 C846.237721,1050.90518 845.220721,1053.73518 843.931721,1056.43118 C842.387721,1059.65518 839.696721,1061.05418 836.123721,1060.35418 C832.446721,1059.63518 830.760721,1057.06718 830.695721,1053.57318 C830.594721,1048.05418 829.983721,1042.60418 828.665721,1037.27018 C827.073721,1030.83018 823.798721,1029.19218 817.640721,1031.39918 C811.706721,1033.52718 810.331721,1033.55418 803.398721,1031.61118 C803.300721,1033.21018 804.519721,1033.98918 805.416721,1034.65918 C814.390721,1041.36518 816.011721,1051.06518 816.430721,1061.28318 C816.566721,1064.58618 815.477721,1067.09218 812.200721,1068.43718 C809.104721,1069.70918 806.569721,1068.72518 804.555721,1066.48918 C800.766721,1062.28318 797.105721,1057.95718 793.535721,1053.56518 C791.896721,1051.55018 790.185721,1050.48418 787.553721,1051.38818 C782.255721,1053.20918 777.058721,1052.29018 771.878721,1050.73018 C764.237721,1048.42918 756.536721,1046.31818 748.945721,1043.86518 C745.544721,1042.76718 743.883721,1043.52818 742.510721,1046.92818 C740.071721,1052.96918 736.169721,1058.23618 732.466721,1063.57318 C730.371721,1066.59118 727.606721,1068.22218 723.902721,1066.84218 C719.883721,1065.34518 719.184721,1062.03218 719.731721,1058.24518 C720.176721,1055.16518 721.778721,1052.27818 721.415721,1049.17618 C703.784721,1043.42018 687.851721,1034.35818 671.560721,1026.16218 C666.846721,1023.79118 662.803721,1023.22218 658.567721,1025.66818 C646.858721,1032.43118 633.978721,1032.09018 621.191721,1032.11218 C615.890721,1032.12218 610.658721,1031.38918 606.311721,1027.46918 C603.347721,1024.79718 600.762721,1026.77318 598.772721,1029.36918 C595.007721,1034.27818 591.996721,1039.66118 589.284721,1045.19518 C587.605721,1048.62018 585.486721,1051.05118 581.275721,1050.58118 C576.957721,1050.10018 575.498721,1046.89318 574.792721,1043.36118 C571.698721,1027.90218 577.441721,1015.24218 587.918721,1004.41618 C592.330721,999.856183 598.503721,998.371183 604.546721,999.138183 C610.483721,999.890183 616.098721,999.212183 621.859721,998.299183 C625.742721,997.683183 629.720721,997.660183 634.474721,997.312183 C630.683721,987.337183 629.638721,976.895183 622.116721,968.967183 C614.092721,960.511183 606.050721,952.042183 598.543721,943.134183 C592.761721,936.271183 584.490721,933.884183 577.216721,929.690183 C575.720721,928.828183 574.002721,929.455183 572.358721,929.894183 C562.722721,932.464183 552.984721,934.685183 543.444721,937.563183 C536.918721,939.533183 531.627721,936.962183 526.463721,933.999183 C523.671721,932.397183 522.873721,929.287183 524.237721,926.073183 C524.877721,924.563183 525.671721,923.118183 526.648721,921.129183 C519.137721,917.383183 512.989721,912.387183 503.168721,914.888183 C490.690721,918.065183 478.178721,921.822183 465.098721,922.466183 C460.962721,922.670183 457.842721,921.842183 456.047721,917.971183 C454.833721,915.351183 452.806721,914.904183 450.281721,915.423183 C448.164721,915.856183 445.994721,916.119183 443.939721,916.753183 C433.406721,920.002183 423.180721,919.215183 412.664721,915.943183 C399.344721,911.800183 385.683721,908.759183 372.222721,905.051183 C368.973721,904.156183 366.150721,904.335183 363.068721,905.664183 C308.556721,929.162183 254.048721,952.671183 199.444721,975.953183 C190.074721,979.948183 179.689721,980.202183 169.783721,982.205183 C146.502721,986.914183 123.114721,991.091183 99.8327208,995.796183 C94.3387208,996.906183 90.8737208,995.636183 87.5467208,991.040183 C77.5527208,977.237183 77.6287208,979.915183 86.9207208,965.794183 C94.5237208,954.240183 101.778721,942.479183 108.253721,930.259183 C110.045721,926.875183 112.465721,924.458183 115.788721,922.595183 C134.667721,912.011183 153.266721,900.905183 172.399721,890.807183 C183.146721,885.135183 192.052721,877.878183 198.849721,867.961183 C200.800721,865.114183 203.361721,863.182183 206.146721,861.309183 C235.433721,841.614183 265.816721,823.502183 293.871721,802.033183 C336.992721,769.038183 379.074721,734.648183 422.800721,702.486183 C495.919721,648.706183 568.340721,593.994183 641.438721,540.198183 C662.444721,524.740183 685.449721,512.005183 707.474721,497.923183 C716.731721,492.004183 725.820721,485.824183 734.996721,479.779183 C737.259721,478.289183 739.009721,476.371183 740.523721,474.117183 C747.572721,463.630183 754.994721,453.367183 759.541721,440.859183" id="Page-1"></path>
        </g>
    </g>
</svg>